STARTFONT 2.1
FONT -Monotype-Nimrod-Bold-R-Normal--50-360-100-100-P-334-iso8859-5
SIZE 36 100 100
FONTBOUNDINGBOX 65 60 -4 -12

STARTPROPERTIES 24
FOUNDRY "Monotype"
FAMILY_NAME "Nimrod"
WEIGHT_NAME "Bold"
SLANT "R"
SETWIDTH_NAME "Normal"
ADD_STYLE_NAME ""
PIXEL_SIZE 50
POINT_SIZE 360
RESOLUTION_X 100
RESOLUTION_Y 100
SPACING "P"
AVERAGE_WIDTH 334
CHARSET_REGISTRY "iso8859"
CHARSET_ENCODING "5"
FACE_NAME "Nimrod Bold ISO Latin Cyrillic"
_DEC_DEVICE_FONTNAMES "PS=nimrod-b-latcyrillic"
COPYRIGHT "Copyright (c) 1993 Monotype Typography Ltd."
CAP_HEIGHT 46
X_HEIGHT 33
WEIGHT 10
QUAD_WIDTH 37
DEFAULT_CHAR 160
FONT_DESCENT 13
FONT_ASCENT 50
ENDPROPERTIES

CHARS 191

STARTCHAR space
ENCODING 32
SWIDTH 250 0
DWIDTH 13 0
BBX 0 0 0 0
BITMAP
ENDCHAR

STARTCHAR exclam
ENCODING 33
SWIDTH 323 0
DWIDTH 16 0
BBX 12 39 2 -1
BITMAP
0300
0FC0
1FC0
3FE0
3FE0
3FE0
3FE0
3FE0
3FC0
1FC0
1FC0
1FC0
1FC0
1F80
1F80
0F80
0F80
0F00
0F00
0F00
0700
0700
0600
0600
0600
0600
0600
0000
0000
0000
0700
0FC0
1FC0
3FE0
3FE0
3FE0
1FC0
0FC0
0700
ENDCHAR

STARTCHAR quotedbl
ENCODING 34
SWIDTH 552 0
DWIDTH 28 0
BBX 23 16 2 18
BITMAP
0E00E0
1F01F0
3F83F8
3F83F8
3F83F8
3F83F8
3F83F8
1F81F0
1F01F0
1F01F0
1F01F0
0E00E0
0E00E0
0E00E0
0E00E0
040040
ENDCHAR

STARTCHAR numbersign
ENCODING 35
SWIDTH 667 0
DWIDTH 33 0
BBX 32 34 1 -1
BITMAP
001C00F0
001C00E0
003C00E0
003C01E0
003801E0
003801C0
003801C0
007801C0
007803C0
7FFFFFFC
7FFFFFFC
7FFFFFFC
7FFFFFFC
00E00780
00E00780
00E00700
01E00700
01E00700
01C00F00
01C00F00
01C00E00
7FFFFFFC
7FFFFFFC
7FFFFFFC
7FFFFFFC
03801C00
07801C00
07803C00
07003C00
07003800
0F003800
0F003800
0F007800
0E007800
ENDCHAR

STARTCHAR dollar
ENCODING 36
SWIDTH 542 0
DWIDTH 27 0
BBX 27 45 0 -7
BITMAP
00060000
00060000
00060000
007FE000
01FFF800
03F67E00
07C61F00
0F861F00
0F061F80
1F061F80
1F061F80
1F863F80
1F863F00
1FC61F00
1FF60400
1FFE0000
0FFF0000
0FFF8000
07FFE000
03FFF000
00FFFC00
007FFE00
001FFF00
0007FF00
0007FF80
00067F80
1F063FC0
1F861FC0
3F860FC0
3F860FC0
3F860FC0
3F860F80
3F060F80
1E060F80
1F061F00
0F863E00
07FFFC00
01FFF000
003F8000
00060000
00060000
00060000
00060000
00060000
00060000
ENDCHAR

STARTCHAR percent
ENCODING 37
SWIDTH 1000 0
DWIDTH 50 0
BBX 43 37 4 -2
BITMAP
01F800038000
07FE00030000
0F9F00070000
1F9F800E0000
1F0F800C0000
3F0FC01C0000
3F0FC0180000
3F0FC0380000
3F0FC0300000
3F0FC0700000
3F0FC0E00000
3F0FC0C00000
3F0FC1C00000
3F0FC1800000
1F0F83800000
1F9F83000000
0F9F07000000
07FE0E03F000
01F80E0FFC00
00001C1F3E00
0000183F3F00
0000383E1F00
0000307E1F80
0000707E1F80
0000607E1F80
0000E07E1F80
0001C07E1F80
0001807E1F80
0003807E1F80
0003007E1F80
0007007E1F80
0006003E1F00
000E003F3F00
001C001F3E00
0018000FFC00
00380003F000
003000000000
ENDCHAR

STARTCHAR ampersand
ENCODING 38
SWIDTH 865 0
DWIDTH 43 0
BBX 42 39 1 -1
BITMAP
00007E000000
0003FFC00000
0007FFE00000
000FC3F00000
001F81F80000
003F00F80000
003F00F80000
003F00F80000
007F00F80000
007F01F80000
007F01F00000
003F83E00000
003F87C00000
003FDF800000
003FFE000000
001FF8000000
001FF0000000
003FF01FFF80
00FFF81FFF80
03F7F81FFF80
07E7FC01F800
0FC3FE00F000
1F83FE00E000
3F81FF00E000
3F80FF81C000
3F80FF81C000
7F807FC38000
7F803FE70000
7F803FE70000
7F801FFE0180
7FC00FFC0380
3FC00FFC0380
3FE007FE0380
3FF003FF8700
1FF807FFFF00
0FFE1FFFFE00
07FFFE3FFE00
03FFF81FFC00
00FFC007E000
ENDCHAR

STARTCHAR quoteright
ENCODING 39
SWIDTH 323 0
DWIDTH 16 0
BBX 13 16 2 22
BITMAP
0700
1F80
3FC0
3FE0
3FE0
3FE0
3FE0
1FE0
0FE0
01C0
01C0
0380
0780
0F00
3E00
1800
ENDCHAR

STARTCHAR parenleft
ENCODING 40
SWIDTH 385 0
DWIDTH 19 0
BBX 18 46 1 -8
BITMAP
000100
000780
000F00
001E00
003C00
007C00
00F800
01F000
03F000
07F000
07E000
0FE000
0FC000
1FC000
1FC000
3FC000
3FC000
3F8000
3F8000
7F8000
7F8000
7F8000
7F8000
7F8000
7F8000
7F8000
7F8000
7F8000
3F8000
3FC000
3FC000
1FC000
1FC000
1FC000
0FE000
0FE000
07E000
03F000
01F000
01F800
00F800
007C00
003E00
001E00
000700
000300
ENDCHAR

STARTCHAR parenright
ENCODING 41
SWIDTH 385 0
DWIDTH 19 0
BBX 19 47 0 -9
BITMAP
300000
780000
3C0000
1F0000
0F8000
0FC000
07C000
03E000
03F000
01F800
01F800
01FC00
00FC00
00FE00
00FE00
00FF00
00FF00
007F00
007F80
007F80
007F80
007F80
007F80
007F80
007F80
007F80
007F80
007F80
007F00
007F00
00FF00
00FE00
00FE00
00FE00
00FC00
01F800
01F800
03F000
03E000
07E000
07C000
0F8000
1F0000
1E0000
380000
300000
200000
ENDCHAR

STARTCHAR asterisk
ENCODING 42
SWIDTH 552 0
DWIDTH 28 0
BBX 27 23 0 15
BITMAP
001F0000
001F8000
003F8000
003F8000
003F8000
001F0000
1C1F0700
3F0E1F80
3F8E3F80
7FCC7FC0
7FE4FF80
3FFFFF80
1F8E1F00
000A0000
003B8000
00FBE000
03F1F000
07F1F800
07F1FC00
07F1FC00
07F1FC00
03E0F800
01C07000
ENDCHAR

STARTCHAR plus
ENCODING 43
SWIDTH 667 0
DWIDTH 33 0
BBX 30 26 2 3
BITMAP
00078000
00078000
00078000
00078000
00078000
00078000
00078000
00078000
00078000
00078000
00078000
3FFFFFF0
3FFFFFF0
3FFFFFF0
3FFFFFF0
00078000
00078000
00078000
00078000
00078000
00078000
00078000
00078000
00078000
00078000
00078000
ENDCHAR

STARTCHAR comma
ENCODING 44
SWIDTH 323 0
DWIDTH 16 0
BBX 13 16 2 -8
BITMAP
0700
1F80
3FC0
3FE0
3FE0
3FE0
3FE0
1FE0
0FE0
01C0
01C0
0380
0780
0F00
3C00
1800
ENDCHAR

STARTCHAR minus
ENCODING 45
SWIDTH 667 0
DWIDTH 33 0
BBX 30 4 2 14
BITMAP
7FFFFFF0
7FFFFFF0
7FFFFFF0
7FFFFFF0
ENDCHAR

STARTCHAR period
ENCODING 46
SWIDTH 323 0
DWIDTH 16 0
BBX 11 9 3 -1
BITMAP
0E00
1F80
3F80
7FC0
7FC0
7FC0
3F80
1F80
0E00
ENDCHAR

STARTCHAR slash
ENCODING 47
SWIDTH 552 0
DWIDTH 28 0
BBX 28 42 0 -1
BITMAP
000003C0
000003C0
00000780
00000780
00000F00
00000F00
00001E00
00001E00
00003C00
00003C00
00007800
00007800
0000F000
0000F000
0001E000
0001E000
0003C000
0003C000
00078000
00078000
000F0000
000F0000
001E0000
001E0000
003C0000
003C0000
00780000
00780000
00F00000
00F00000
01E00000
01E00000
03C00000
03C00000
07800000
07800000
0F000000
0F000000
1E000000
1E000000
3C000000
3C000000
ENDCHAR

STARTCHAR zero
ENCODING 48
SWIDTH 594 0
DWIDTH 30 0
BBX 29 36 1 -1
BITMAP
000F8000
007FE000
01FFF800
03F0FC00
07E07E00
0FC03F00
0FC03F80
1FC03F80
1FC03F80
3FC01FC0
3F801FC0
3F801FC0
7F801FE0
7F801FE0
7F801FE0
7F801FE0
7F801FE0
7F801FE0
7F801FE0
7F801FE0
7F801FE0
7F801FE0
7F801FE0
7F801FE0
3F801FC0
3F801FC0
3FC01FC0
1FC03F80
1FC03F80
0FC03F80
0FC03F00
07E07E00
03F0FC00
01FFF800
007FE000
000F0000
ENDCHAR

STARTCHAR one
ENCODING 49
SWIDTH 594 0
DWIDTH 30 0
BBX 24 35 3 0
BITMAP
000300
001F00
00FF00
3FFF00
3FFF00
3FFF00
007F00
007F00
007F00
007F00
007F00
007F00
007F00
007F00
007F00
007F00
007F00
007F00
007F00
007F00
007F00
007F00
007F00
007F00
007F00
007F00
007F00
007F00
007F00
007F00
007F00
007F00
3FFFFE
3FFFFE
3FFFFE
ENDCHAR

STARTCHAR two
ENCODING 50
SWIDTH 594 0
DWIDTH 30 0
BBX 28 35 1 0
BITMAP
001FC000
00FFF800
03FFFE00
07C1FF00
0F80FF80
0F007F80
1F003FC0
1F803FC0
1FC03FC0
1FC03FC0
1FE03FC0
1FE03FC0
0FC07F80
07807F80
00007F00
0000FF00
0001FE00
0001FC00
0003F800
0007E000
000FC000
001F8000
003F0000
007C00E0
00F800E0
00E000E0
01C001E0
038001C0
07FFFFC0
0FFFFFC0
1FFFFFC0
3FFFFFC0
7FFFFFC0
7FFFFFC0
7FFFFFC0
ENDCHAR

STARTCHAR three
ENCODING 51
SWIDTH 594 0
DWIDTH 30 0
BBX 30 36 0 -1
BITMAP
001FC000
00FFF800
03FFFE00
07C0FF00
0F807F80
0F803FC0
1F803FC0
1FC01FC0
1FC01FC0
1FC01FC0
0FC01FC0
07801FC0
00003F80
00003F00
00007E00
0001F800
007FC000
007FF800
0000FF00
00003F80
00001FC0
00001FE0
00000FE0
0F000FF0
1F800FF0
3F800FF0
3F800FF0
3F800FF0
3F000FF0
3F001FE0
1F001FE0
1F003FC0
0FC07F80
07FFFF00
01FFFC00
003FC000
ENDCHAR

STARTCHAR four
ENCODING 52
SWIDTH 594 0
DWIDTH 30 0
BBX 29 35 0 0
BITMAP
00001E00
00003E00
00007E00
00007E00
0000FE00
0001FE00
0003FE00
0007FE00
0007FE00
000EFE00
001CFE00
0038FE00
0078FE00
0070FE00
00E0FE00
01C0FE00
0380FE00
0380FE00
0700FE00
0E00FE00
1C00FE00
3800FE00
3800FE00
3FFFFFF0
3FFFFFF0
3FFFFFF0
0000FE00
0000FE00
0000FE00
0000FE00
0000FE00
0000FE00
003FFFF0
003FFFF0
003FFFF0
ENDCHAR

STARTCHAR five
ENCODING 53
SWIDTH 594 0
DWIDTH 30 0
BBX 29 36 0 -1
BITMAP
000001C0
03FFFF80
03FFFF80
03FFFF80
03FFFF80
03FFFF00
03FFFF00
07000000
07000000
07000000
07000000
06000000
061FE000
067FF800
07FFFE00
07C1FF00
0F007F80
00007FC0
00003FC0
00003FC0
00001FE0
00001FE0
0E001FE0
1F801FE0
3F801FE0
3F801FE0
3F801FE0
3F801FC0
3F001FC0
3F003FC0
1F003F80
1F007F00
0FC0FE00
07FFFC00
01FFF000
003F0000
ENDCHAR

STARTCHAR six
ENCODING 54
SWIDTH 594 0
DWIDTH 30 0
BBX 28 36 1 -1
BITMAP
0007F000
003FFE00
00FFFF00
01F81F80
03F00FC0
07E01FC0
0FE01FC0
0FC01FC0
1FC01FC0
1FC00F80
1F800000
3F800000
3F800000
3F800000
3F83F800
7F8FFE00
7FBFFF00
7FFFFF80
7FF0FF80
7FE07FC0
7FC03FC0
7F801FE0
7F801FE0
7F801FE0
3F801FE0
3F801FE0
3F801FE0
3F801FC0
1F801FC0
1FC01FC0
0FC03F80
07E03F80
07F0FF00
01FFFC00
00FFF800
000F8000
ENDCHAR

STARTCHAR seven
ENCODING 55
SWIDTH 594 0
DWIDTH 30 0
BBX 28 35 1 -1
BITMAP
1FFFFFE0
1FFFFFE0
1FFFFFE0
1FFFFFC0
1FFFFF80
1FFFFF80
1FFFFF00
3C000700
38000E00
38000E00
38001C00
30001C00
00003800
00007800
00007000
0000F000
0000F000
0001E000
0003E000
0003E000
0007C000
0007C000
000FC000
000FC000
001F8000
001F8000
003F8000
003F8000
003F8000
007F8000
007F8000
007F0000
007F0000
007F0000
003E0000
ENDCHAR

STARTCHAR eight
ENCODING 56
SWIDTH 594 0
DWIDTH 30 0
BBX 28 36 1 -1
BITMAP
003F8000
01FFF000
07FFFC00
0FE0FE00
1FC07F00
1FC07F00
3F803F80
3F803F80
3F803F80
3F803F80
3F803F80
3F803F80
1FC03F80
1FC07F00
0FC07E00
07E0FC00
01FFF000
007FC000
03FFFC00
0FE0FE00
1FC07F00
3FC07F80
3F803F80
7F803FC0
7F803FC0
7F803FC0
7F803FC0
7F803FC0
7F803FC0
3F803F80
3FC07F80
1FC07F00
0FE0FE00
07FFFC00
01FFF000
001F8000
ENDCHAR

STARTCHAR nine
ENCODING 57
SWIDTH 594 0
DWIDTH 30 0
BBX 28 36 1 -1
BITMAP
001F8000
01FFF000
03FFF800
0FF07E00
1FE03F00
1FC03F00
3FC01F80
3F801F80
7F801FC0
7F801FC0
7F801FC0
7F801FC0
7F801FE0
7F801FE0
7FC01FE0
3FC03FE0
3FE07FE0
1FF0FFE0
1FFFFFE0
0FFFDFE0
03FF1FE0
01FC1FE0
00001FC0
00001FC0
00001FC0
00001FC0
1F001F80
3F803F80
3F803F00
3F807F00
3F807E00
3F80FC00
1F81F800
0FFFF000
07FFC000
007C0000
ENDCHAR

STARTCHAR colon
ENCODING 58
SWIDTH 323 0
DWIDTH 16 0
BBX 11 29 3 -1
BITMAP
0E00
3F80
3F80
7FC0
7FC0
7FC0
3F80
3F80
0E00
0000
0000
0000
0000
0000
0000
0000
0000
0000
0000
0000
0E00
3F80
3F80
7FC0
7FC0
7FC0
3F80
1F80
0E00
ENDCHAR

STARTCHAR semicolon
ENCODING 59
SWIDTH 323 0
DWIDTH 16 0
BBX 13 36 2 -8
BITMAP
0700
0FC0
1FC0
3FE0
3FE0
3FE0
1FC0
1FC0
0700
0000
0000
0000
0000
0000
0000
0000
0000
0000
0000
0000
0F00
1FC0
3FC0
3FE0
3FE0
3FE0
3FE0
1FE0
0FE0
01C0
01C0
0380
0780
0F00
3C00
1800
ENDCHAR

STARTCHAR less
ENCODING 60
SWIDTH 667 0
DWIDTH 33 0
BBX 30 25 2 4
BITMAP
00000030
000000F0
000007F0
00001FF0
00007FC0
0003FF00
000FFC00
003FE000
01FF8000
07FC0000
3FF00000
7F800000
7E000000
7F800000
7FE00000
0FF80000
03FF0000
007FC000
001FF800
0007FE00
0000FFC0
00003FF0
000007F0
000001F0
00000070
ENDCHAR

STARTCHAR equal
ENCODING 61
SWIDTH 667 0
DWIDTH 33 0
BBX 30 16 2 8
BITMAP
7FFFFFF0
7FFFFFF0
7FFFFFF0
7FFFFFF0
00000000
00000000
00000000
00000000
00000000
00000000
00000000
00000000
7FFFFFF0
7FFFFFF0
7FFFFFF0
7FFFFFF0
ENDCHAR

STARTCHAR greater
ENCODING 62
SWIDTH 667 0
DWIDTH 33 0
BBX 30 26 2 3
BITMAP
60000000
7C000000
7F000000
7FC00000
1FF80000
07FE0000
00FF8000
003FF000
0007FC00
0001FF00
00007FE0
00000FF0
000003F0
000007F0
00003FF0
0000FF80
0003FE00
001FF800
007FC000
03FF0000
0FFC0000
7FE00000
7F800000
7C000000
70000000
40000000
ENDCHAR

STARTCHAR question
ENCODING 63
SWIDTH 500 0
DWIDTH 25 0
BBX 25 39 0 -1
BITMAP
007E0000
03FFC000
0FFFF000
1F07F800
3E03FC00
3F01FC00
7F01FE00
7F81FE00
7F81FE00
7F81FE00
3F81FE00
3F01FE00
0E03FC00
0003FC00
0003F800
0007F000
000FE000
000FC000
001F8000
001E0000
001C0000
00380000
00380000
00380000
00300000
00300000
00300000
00000000
00000000
00000000
00380000
007E0000
00FE0000
01FF0000
01FF0000
01FF0000
00FE0000
007E0000
00380000
ENDCHAR

STARTCHAR at
ENCODING 64
SWIDTH 927 0
DWIDTH 46 0
BBX 46 45 1 -11
BITMAP
000007F80000
00007FFF0000
0003F001C000
000780007000
001E00001800
003800000C00
007000000600
01E000000300
01C000000300
038000000180
070000000080
070007C00080
0E000FEFC0C0
0C003E6F8040
1C007C3F8040
1800F83F8040
3801F83F0040
3801F03F0040
3803F03F0040
3007E03F0040
7007E03E0040
700FC07E00C0
700FC07E00C0
700FC0FC0080
701FC0FC0180
701F81FC0100
701F81F80300
301F83F80200
301F85F80600
301FCDF80C00
381FF9F81810
181FF1F86030
180FE0FFC020
0C07C03E0060
0C0000000040
060000000080
070000000180
038000000300
01C000000600
00E000000C00
007000003800
003C00006000
000F0003C000
0003F01F0000
00007FF80000
ENDCHAR

STARTCHAR A
ENCODING 65
SWIDTH 854 0
DWIDTH 43 0
BBX 43 38 0 0
BITMAP
00000F000000
00001F000000
00001F800000
00003F800000
00003F800000
00003FC00000
00007FC00000
00007FE00000
0000FFE00000
0000FFE00000
0001FFF00000
0001CFF00000
0001CFF80000
00038FF80000
000387F80000
000707FC0000
000703FC0000
000E03FE0000
000E01FE0000
000E01FE0000
001C01FF0000
001C00FF0000
003800FF8000
0038007F8000
007FFFFFC000
007FFFFFC000
00FFFFFFC000
00E0003FE000
00E0001FE000
01C0001FF000
01C0001FF000
03C0000FF000
03C0000FF800
07C0000FF800
0FE0000FFC00
7FFE01FFFF80
7FFE01FFFF80
7FFE01FFFF80
ENDCHAR

STARTCHAR B
ENCODING 66
SWIDTH 792 0
DWIDTH 40 0
BBX 40 37 0 0
BITMAP
3FFFFFE000
3FFFFFFE00
3FFFFFFF80
03FF01FFC0
01FE007FC0
01FE003FE0
01FE001FE0
01FE001FF0
01FE001FF0
01FE001FF0
01FE001FF0
01FE001FE0
01FE001FE0
01FE003FE0
01FE003FC0
01FE007F80
01FE00FE00
01FFFFF800
01FFFFE000
01FFFFFF00
01FE007FC0
01FE001FF0
01FE000FF0
01FE000FF8
01FE0007FC
01FE0007FC
01FE0007FC
01FE0007FC
01FE0007FC
01FE0007FC
01FE000FF8
01FE000FF8
01FE001FF0
03FF007FE0
3FFFFFFFC0
3FFFFFFF00
3FFFFFF800
ENDCHAR

STARTCHAR C
ENCODING 67
SWIDTH 750 0
DWIDTH 38 0
BBX 36 39 1 -1
BITMAP
0000FF8000
000FFFFC00
003FFFFF00
007FC0FF80
01FF003F80
03FE001F80
03FC000F80
07F8000780
0FF8000780
0FF0000380
1FF0000380
1FF0000380
3FE0000380
3FE0000380
3FE0000000
3FE0000000
3FE0000000
7FE0000000
7FE0000000
7FE0000000
7FE0000000
7FE0000000
7FE0000000
7FE0000000
3FE0000000
3FE00001C0
3FE00001C0
3FF00001C0
1FF00003C0
1FF8000380
0FF8000780
0FFC000700
07FC000F00
03FF003E00
01FF80FC00
00FFFFF800
003FFFE000
000FFFC000
0001FE0000
ENDCHAR

STARTCHAR D
ENCODING 68
SWIDTH 823 0
DWIDTH 41 0
BBX 40 37 0 0
BITMAP
3FFFFF8000
3FFFFFF800
3FFFFFFE00
01FF01FF00
01FE007FC0
01FE003FE0
01FE001FE0
01FE000FF0
01FE000FF8
01FE000FF8
01FE0007F8
01FE0007FC
01FE0007FC
01FE0007FC
01FE0007FE
01FE0007FE
01FE0007FE
01FE0007FE
01FE0007FE
01FE0007FE
01FE0007FE
01FE0007FE
01FE0007FE
01FE0007FC
01FE0007FC
01FE0007FC
01FE0007F8
01FE000FF8
01FE000FF0
01FE000FF0
01FE001FE0
01FE003FC0
01FE007F80
03FF01FF00
3FFFFFFE00
3FFFFFF000
3FFFFF8000
ENDCHAR

STARTCHAR E
ENCODING 69
SWIDTH 750 0
DWIDTH 38 0
BBX 36 37 0 0
BITMAP
3FFFFFFF00
3FFFFFFF80
3FFFFFFF80
03FE007F80
01FE001F80
01FE000F80
01FE000780
01FE000780
01FE000380
01FE000380
01FE038380
01FE038380
01FE038000
01FE038000
01FE078000
01FE0F8000
01FFFF8000
01FFFF8000
01FFFF8000
01FE0F8000
01FE078000
01FE078000
01FE038000
01FE0380C0
01FE0381C0
01FE0381C0
01FE0001C0
01FE0001C0
01FE0003C0
01FE0003C0
01FE0007C0
01FE000FC0
01FE001FC0
03FE007FC0
3FFFFFFFC0
3FFFFFFFC0
3FFFFFFFC0
ENDCHAR

STARTCHAR F
ENCODING 70
SWIDTH 698 0
DWIDTH 35 0
BBX 35 37 0 0
BITMAP
3FFFFFFF00
3FFFFFFF80
3FFFFFFF80
03FE007F80
01FE001F80
01FE000F80
01FE000780
01FE000780
01FE000380
01FE000380
01FE038380
01FE038380
01FE038000
01FE038000
01FE078000
01FE0F8000
01FFFF8000
01FFFF8000
01FFFF8000
01FE0F8000
01FE078000
01FE078000
01FE038000
01FE038000
01FE038000
01FE038000
01FE000000
01FE000000
01FE000000
01FE000000
01FE000000
01FE000000
01FE000000
03FE000000
3FFFFC0000
3FFFFC0000
3FFFFC0000
ENDCHAR

STARTCHAR G
ENCODING 71
SWIDTH 854 0
DWIDTH 43 0
BBX 42 39 1 -1
BITMAP
00007FE00000
0007FFFE0000
001FFFFFC000
007FC07FE000
00FF001FE000
01FE0007E000
03FC0007E000
07F80003E000
0FF80001E000
0FF00001E000
1FF00000E000
1FF00000E000
1FE00000E000
3FE000000000
3FE000000000
3FE000000000
3FE000000000
7FE000000000
7FE000000000
7FE000000000
7FE003FFFF80
7FE003FFFF80
7FE003FFFF80
3FE0001FF800
3FE0000FF000
3FE0000FF000
3FF0000FF000
1FF0000FF000
1FF0000FF000
0FF8000FF000
0FF8000FF000
07FC000FF000
03FC000FF000
03FE000FF000
00FF000FF000
007FE03FE000
003FFFFF8000
000FFFFC0000
0000FFC00000
ENDCHAR

STARTCHAR H
ENCODING 72
SWIDTH 865 0
DWIDTH 43 0
BBX 44 37 0 0
BITMAP
3FFFF0FFFFC0
3FFFF0FFFFC0
3FFFF0FFFFC0
03FF000FFC00
01FE0007F800
01FE0007F800
01FE0007F800
01FE0007F800
01FE0007F800
01FE0007F800
01FE0007F800
01FE0007F800
01FE0007F800
01FE0007F800
01FE0007F800
01FE0007F800
01FFFFFFF800
01FFFFFFF800
01FFFFFFF800
01FE0007F800
01FE0007F800
01FE0007F800
01FE0007F800
01FE0007F800
01FE0007F800
01FE0007F800
01FE0007F800
01FE0007F800
01FE0007F800
01FE0007F800
01FE0007F800
01FE0007F800
01FE0007F800
03FF000FFC00
3FFFF0FFFFC0
3FFFF0FFFFC0
3FFFF0FFFFC0
ENDCHAR

STARTCHAR I
ENCODING 73
SWIDTH 448 0
DWIDTH 22 0
BBX 22 37 0 0
BITMAP
7FFFF8
7FFFF8
7FFFF8
03FF00
01FE00
01FE00
01FE00
01FE00
01FE00
01FE00
01FE00
01FE00
01FE00
01FE00
01FE00
01FE00
01FE00
01FE00
01FE00
01FE00
01FE00
01FE00
01FE00
01FE00
01FE00
01FE00
01FE00
01FE00
01FE00
01FE00
01FE00
01FE00
01FE00
03FF00
7FFFF8
7FFFF8
7FFFF8
ENDCHAR

STARTCHAR J
ENCODING 74
SWIDTH 635 0
DWIDTH 32 0
BBX 33 38 -1 -1
BITMAP
000FFFFE00
000FFFFE00
000FFFFE00
00003FE000
00003FC000
00003FC000
00003FC000
00003FC000
00003FC000
00003FC000
00003FC000
00003FC000
00003FC000
00003FC000
00003FC000
00003FC000
00003FC000
00003FC000
00003FC000
00003FC000
00003FC000
00003FC000
00003FC000
0F803FC000
1FC03FC000
1FE03FC000
3FE03FC000
3FE03FC000
3FE03FC000
3FC03FC000
3F803FC000
3F803FC000
1F007F8000
0F807F0000
0FC0FF0000
07FFFC0000
01FFF80000
003FC00000
ENDCHAR

STARTCHAR K
ENCODING 75
SWIDTH 854 0
DWIDTH 43 0
BBX 44 37 0 0
BITMAP
3FFFF0FFFF00
3FFFF0FFFF00
3FFFF0FFFF00
03FF001FF000
01FE000FC000
01FE000F8000
01FE000F0000
01FE001E0000
01FE003C0000
01FE00780000
01FE00F00000
01FE01E00000
01FE03C00000
01FE07800000
01FE0FC00000
01FE1FE00000
01FE3FE00000
01FE7FF00000
01FEFFF80000
01FFEFF80000
01FFCFFC0000
01FF87FC0000
01FF03FE0000
01FE03FF0000
01FE01FF0000
01FE00FF8000
01FE00FFC000
01FE007FC000
01FE007FE000
01FE003FE000
01FE001FF000
01FE001FF800
01FE000FF800
03FF001FFE00
3FFFF1FFFFC0
3FFFF1FFFFC0
3FFFF1FFFFC0
ENDCHAR

STARTCHAR L
ENCODING 76
SWIDTH 708 0
DWIDTH 35 0
BBX 36 37 0 0
BITMAP
3FFFFC0000
3FFFFC0000
3FFFFC0000
03FF000000
01FE000000
01FE000000
01FE000000
01FE000000
01FE000000
01FE000000
01FE000000
01FE000000
01FE000000
01FE000000
01FE000000
01FE000000
01FE000000
01FE000000
01FE000000
01FE000000
01FE000000
01FE000000
01FE000000
01FE0000C0
01FE0001C0
01FE0001C0
01FE0001C0
01FE0001C0
01FE0003C0
01FE0003C0
01FE0007C0
01FE0007C0
01FE000FC0
03FF003FC0
3FFFFFFFC0
3FFFFFFFC0
3FFFFFFFC0
ENDCHAR

STARTCHAR M
ENCODING 77
SWIDTH 1052 0
DWIDTH 53 0
BBX 53 37 0 0
BITMAP
3FFFC0001FFFE0
3FFFC0001FFFE0
3FFFE0001FFFE0
01DFE0003BFC00
01DFF0003BFC00
01DFF0003BFC00
01CFF00073FC00
01CFF80073FC00
01C7F80073FC00
01C7F800E3FC00
01C7FC00E3FC00
01C3FC01E3FC00
01C3FE01C3FC00
01C3FE01C3FC00
01C1FE0383FC00
01C1FF0383FC00
01C0FF0383FC00
01C0FF0703FC00
01C0FF8703FC00
01C07F8703FC00
01C07F8E03FC00
01C07FCE03FC00
01C03FDE03FC00
01C03FFC03FC00
01C01FFC03FC00
01C01FF803FC00
01C01FF803FC00
01C00FF803FC00
01C00FF003FC00
01C007F003FC00
01C007F003FC00
01E007E003FC00
03E003E003FC00
07F003E003FC00
3FFF03C07FFFE0
3FFF01C07FFFE0
3FFF01C07FFFE0
ENDCHAR

STARTCHAR N
ENCODING 78
SWIDTH 833 0
DWIDTH 42 0
BBX 43 37 0 0
BITMAP
3FFC003FFF80
3FFE003FFF80
3FFF003FFF80
03FF8001FC00
01FF8000F800
01FFC000F000
01FFE0007000
01FFF0007000
01FFF0007000
01DFF8007000
01CFFC007000
01C7FE007000
01C7FF007000
01C3FF007000
01C1FF807000
01C0FFC07000
01C07FE07000
01C07FF07000
01C03FF07000
01C01FF87000
01C00FFC7000
01C00FFE7000
01C007FE7000
01C003FF7000
01C001FFF000
01C000FFF000
01C000FFF000
01C0007FF000
01C0003FF000
01C0001FF000
01C0001FF000
03E0000FF000
03E00007F000
07F00003F000
3FFF8001F000
3FFF8001F000
3FFF8000F000
ENDCHAR

STARTCHAR O
ENCODING 79
SWIDTH 823 0
DWIDTH 41 0
BBX 39 39 1 -1
BITMAP
0001FF0000
000FFFE000
003FFFF800
00FF01FE00
01FE00FF00
03FC007F80
07F8003FC0
07F8003FC0
0FF0001FE0
0FF0001FF0
1FF0001FF0
1FE0000FF0
3FE0000FF8
3FE0000FF8
3FE0000FF8
3FE0000FF8
3FE0000FFC
7FE0000FFC
7FE0000FFC
7FE0000FFC
7FE0000FFC
7FE0000FFC
7FE0000FFC
3FE0000FF8
3FE0000FF8
3FE0000FF8
3FE0000FF8
1FF0000FF0
1FF0001FF0
0FF0001FE0
0FF0001FE0
07F8003FC0
07F8003FC0
03FC007F80
01FE00FF00
00FF01FE00
003FFFF800
000FFFE000
0001FF0000
ENDCHAR

STARTCHAR P
ENCODING 80
SWIDTH 729 0
DWIDTH 36 0
BBX 37 37 0 0
BITMAP
3FFFFFC000
3FFFFFF800
3FFFFFFE00
03FF03FF00
01FE00FF80
01FE007FC0
01FE007FC0
01FE003FE0
01FE003FE0
01FE003FE0
01FE003FE0
01FE003FE0
01FE003FE0
01FE003FE0
01FE007FC0
01FE007FC0
01FE00FF80
01FE03FF00
01FFFFFE00
01FFFFF800
01FFFFC000
01FE000000
01FE000000
01FE000000
01FE000000
01FE000000
01FE000000
01FE000000
01FE000000
01FE000000
01FE000000
01FE000000
01FE000000
03FE000000
3FFFFC0000
3FFFFC0000
3FFFFC0000
ENDCHAR

STARTCHAR Q
ENCODING 81
SWIDTH 823 0
DWIDTH 41 0
BBX 44 44 1 -6
BITMAP
0001FF000000
000FFFE00000
003FFFF80000
00FF01FE0000
01FE00FF0000
03FC007F8000
07F8003FC000
07F8001FC000
0FF0001FE000
0FF0001FF000
1FF0000FF000
1FE0000FF000
3FE0000FF800
3FE0000FF800
3FE0000FF800
3FE0000FF800
3FE0000FFC00
7FE0000FFC00
7FE0000FFC00
7FE0000FFC00
7FE0000FFC00
7FE0000FFC00
7FE1F80FFC00
3FE7FE0FF800
3FEFFF0FF800
3FEE3F8FF800
3FF81F8FF800
1FF80F8FF000
1FF007DFF000
1FF007DFF000
0FF007FFE000
07F003FFC000
07F803FFC000
03FC01FF8000
01FE01FF0000
00FF01FE0000
003FFFF80000
000FFFFC0000
0000FE7E0000
0000003F8000
0000001FE000
0000000FFFC0
00000003FFC0
000000003F80
ENDCHAR

STARTCHAR R
ENCODING 82
SWIDTH 802 0
DWIDTH 40 0
BBX 41 37 0 0
BITMAP
3FFFFFE00000
3FFFFFFC0000
3FFFFFFF0000
03FF01FF8000
01FE00FFC000
01FE007FC000
01FE003FE000
01FE003FE000
01FE003FE000
01FE003FE000
01FE003FE000
01FE003FE000
01FE003FC000
01FE003FC000
01FE007F8000
01FE00FF8000
01FE01FE0000
01FFFFFC0000
01FFFFE00000
01FFFFE00000
01FE07F80000
01FE03FC0000
01FE03FC0000
01FE01FE0000
01FE01FE0000
01FE01FF0000
01FE00FF0000
01FE00FF8000
01FE007F8000
01FE007FC000
01FE007FC000
01FE003FE000
01FE003FE000
03FF001FF000
3FFFF01FFE00
3FFFF00FFE00
3FFFF00FFE00
ENDCHAR

STARTCHAR S
ENCODING 83
SWIDTH 646 0
DWIDTH 32 0
BBX 30 39 2 -1
BITMAP
001FE000
00FFFF00
03FFFFC0
07F03FE0
0FE00FE0
1FC007E0
1F8003E0
3F8001E0
3F8001E0
3FC000E0
3FC000E0
3FE000E0
3FF000E0
3FFC0000
1FFF0000
1FFFC000
0FFFF000
07FFFC00
03FFFF00
01FFFF80
007FFFC0
000FFFE0
0003FFE0
0001FFF0
00007FF0
70001FF8
78000FF8
78000FF8
780007F8
780007F8
7C0007F8
7C0007F0
7E0007F0
7F000FE0
7F801FE0
7FE07F80
3FFFFF00
0FFFFC00
007FE000
ENDCHAR

STARTCHAR T
ENCODING 84
SWIDTH 729 0
DWIDTH 36 0
BBX 37 37 0 0
BITMAP
3FFFFFFFC0
3FFFFFFFC0
3FFFFFFFC0
3F87FE1FC0
3F03FC07E0
3E03FC07E0
7C03FC03E0
7803FC01E0
7803FC01E0
7803FC01E0
7003FC00E0
7003FC00E0
7003FC00E0
7003FC00E0
0003FC0000
0003FC0000
0003FC0000
0003FC0000
0003FC0000
0003FC0000
0003FC0000
0003FC0000
0003FC0000
0003FC0000
0003FC0000
0003FC0000
0003FC0000
0003FC0000
0003FC0000
0003FC0000
0003FC0000
0003FC0000
0003FC0000
0007FE0000
00FFFFF000
00FFFFF000
00FFFFF000
ENDCHAR

STARTCHAR U
ENCODING 85
SWIDTH 802 0
DWIDTH 40 0
BBX 42 38 -1 -1
BITMAP
3FFFF83FFF00
3FFFF83FFF00
3FFFF83FFF00
03FF0003F800
01FE0001F000
01FE0001F000
01FE0000E000
01FE0000E000
01FE0000E000
01FE0000E000
01FE0000E000
01FE0000E000
01FE0000E000
01FE0000E000
01FE0000E000
01FE0000E000
01FE0000E000
01FE0000E000
01FE0000E000
01FE0000E000
01FE0000E000
01FE0000E000
01FE0000E000
01FE0000E000
01FE0000E000
01FE0000E000
01FE0000E000
01FE0000E000
01FE0000E000
01FF0001E000
01FF0001E000
00FF0003C000
00FF8003C000
00FFC00F8000
007FF03F0000
003FFFFE0000
000FFFF80000
0003FFC00000
ENDCHAR

STARTCHAR V
ENCODING 86
SWIDTH 823 0
DWIDTH 41 0
BBX 42 38 0 -1
BITMAP
7FFFE01FFF00
7FFFE01FFF00
7FFFE01FFF00
0FFE0003FC00
07FC0001F000
03FE0001F000
03FE0001E000
01FE0001E000
01FF0001C000
00FF0001C000
00FF80038000
00FF80038000
007FC0078000
007FC0070000
003FC0070000
003FE00E0000
001FE00E0000
001FF01E0000
001FF01C0000
000FF01C0000
000FF8380000
0007F8380000
0007FC780000
0007FC700000
0003FC700000
0003FEE00000
0001FEE00000
0001FFE00000
0001FFC00000
0000FFC00000
0000FF800000
00007F800000
00007F000000
00003F000000
00003F000000
00003E000000
00001E000000
00001C000000
ENDCHAR

STARTCHAR W
ENCODING 87
SWIDTH 1104 0
DWIDTH 55 0
BBX 56 38 0 -1
BITMAP
7FFF8FFFFC3FFE
7FFF8FFFFC3FFE
7FFF8FFFFC3FFE
0FF800FF8007F0
07F8007F8003E0
07F8007F8003C0
07FC007FC003C0
03FC003FC00380
03FC003FC00380
03FE007FE00380
01FE007FE00700
01FE007FE00700
01FF00FFF00F00
00FF00EFF00E00
00FF00EFF00E00
00FF81CFF81E00
007F81C7F81C00
007F81C7F81C00
007FC387FC3800
003FC383FC3800
003FC783FC3800
003FE703FE7000
001FE701FE7000
001FEF01FE7000
000FFE01FFE000
000FFE00FFE000
000FFC00FFE000
0007FC00FFC000
0007FC007FC000
0007F8007FC000
0003F8003F8000
0003F8003F8000
0003F0003F0000
0001F0001F0000
0001F0001F0000
0001E0001E0000
0000E0000E0000
0000E0000E0000
ENDCHAR

STARTCHAR X
ENCODING 88
SWIDTH 802 0
DWIDTH 40 0
BBX 41 37 0 0
BITMAP
7FFFF0FFFC00
7FFFF0FFFC00
7FFFF0FFFC00
0FFF001FE000
07FE000FC000
03FF000F8000
03FF000F0000
01FF801E0000
00FFC03C0000
007FC0780000
007FE0F00000
003FF0F00000
001FF9E00000
000FFBC00000
000FFF800000
0007FF000000
0003FF000000
0001FF800000
0001FF800000
0000FFC00000
0000FFE00000
0001FFF00000
0003FFF00000
00079FF80000
00070FFC0000
000F0FFE0000
001E07FE0000
003C03FF0000
007801FF8000
00F001FF8000
01F000FFC000
01F0007FE000
07F0007FF000
0FF0007FF800
7FFF07FFFF00
7FFF07FFFF00
7FFF07FFFF00
ENDCHAR

STARTCHAR Y
ENCODING 89
SWIDTH 792 0
DWIDTH 40 0
BBX 41 37 0 0
BITMAP
3FFFF03FFE00
3FFFF03FFE00
3FFFF03FFE00
0FFE0007F000
07FE0003E000
03FF0003C000
01FF0003C000
01FF80038000
00FFC0070000
007FC00F0000
007FE00E0000
003FF01E0000
001FF81C0000
000FF8380000
000FFC780000
0007FE700000
0003FEF00000
0003FFE00000
0001FFC00000
0000FFC00000
0000FF800000
00007F800000
00007F800000
00007F800000
00007F800000
00007F800000
00007F800000
00007F800000
00007F800000
00007F800000
00007F800000
00007F800000
00007F800000
0000FFC00000
001FFFFE0000
001FFFFE0000
001FFFFE0000
ENDCHAR

STARTCHAR Z
ENCODING 90
SWIDTH 667 0
DWIDTH 33 0
BBX 33 37 0 0
BITMAP
0FFFFFFE00
0FFFFFFE00
1FFFFFFE00
1FF007FE00
1FC007FC00
1F800FFC00
1F001FF800
1E001FF000
1E003FF000
1C003FE000
1C007FC000
1C00FFC000
1C00FF8000
0001FF0000
0003FF0000
0003FE0000
0007FC0000
000FFC0000
000FF80000
001FF80000
003FF00000
003FE00000
007FE00000
00FFC00600
00FF800600
01FF800E00
01FF000E00
03FE000E00
07FE001E00
07FC001E00
0FF8003E00
1FF8007E00
1FF000FE00
3FE003FE00
3FFFFFFE00
3FFFFFFE00
3FFFFFFE00
ENDCHAR

STARTCHAR bracketleft
ENCODING 91
SWIDTH 396 0
DWIDTH 20 0
BBX 17 45 2 -8
BITMAP
3FFF00
3FFF00
3FFF00
3F8000
3F8000
3F8000
3F8000
3F8000
3F8000
3F8000
3F8000
3F8000
3F8000
3F8000
3F8000
3F8000
3F8000
3F8000
3F8000
3F8000
3F8000
3F8000
3F8000
3F8000
3F8000
3F8000
3F8000
3F8000
3F8000
3F8000
3F8000
3F8000
3F8000
3F8000
3F8000
3F8000
3F8000
3F8000
3F8000
3F8000
3F8000
3F8000
3FFF00
3FFF00
3FFF00
ENDCHAR

STARTCHAR backslash
ENCODING 92
SWIDTH 552 0
DWIDTH 28 0
BBX 28 42 0 -1
BITMAP
3C000000
3C000000
1E000000
1E000000
0F000000
0F000000
07800000
07800000
03C00000
03C00000
01E00000
01E00000
00F00000
00F00000
00780000
00780000
003C0000
003C0000
001E0000
001E0000
000F0000
000F0000
000F8000
00078000
0007C000
0003C000
0003E000
0001E000
0001F000
0000F000
0000F800
00007800
00007C00
00003C00
00003E00
00001E00
00001F00
00000F00
00000F00
00000780
00000780
000003C0
ENDCHAR

STARTCHAR bracketright
ENCODING 93
SWIDTH 396 0
DWIDTH 20 0
BBX 17 45 0 -8
BITMAP
7FFE00
7FFE00
7FFE00
00FE00
00FE00
00FE00
00FE00
00FE00
00FE00
00FE00
00FE00
00FE00
00FE00
00FE00
00FE00
00FE00
00FE00
00FE00
00FE00
00FE00
00FE00
00FE00
00FE00
00FE00
00FE00
00FE00
00FE00
00FE00
00FE00
00FE00
00FE00
00FE00
00FE00
00FE00
00FE00
00FE00
00FE00
00FE00
00FE00
00FE00
00FE00
00FE00
7FFE00
7FFE00
7FFE00
ENDCHAR

STARTCHAR asciicircum
ENCODING 94
SWIDTH 583 0
DWIDTH 29 0
BBX 25 18 2 16
BITMAP
000C0000
001C0000
003E0000
003F0000
007F0000
00778000
00F78000
00E3C000
01E3C000
03C1E000
0381F000
0780F000
07007800
0F007800
0E003C00
1E003C00
3C001E00
3C001E00
ENDCHAR

STARTCHAR underscore
ENCODING 95
SWIDTH 500 0
DWIDTH 25 0
BBX 29 3 -2 -11
BITMAP
3FFFFFE0
3FFFFFE0
3FFFFFE0
ENDCHAR

STARTCHAR quoteleft
ENCODING 96
SWIDTH 323 0
DWIDTH 16 0
BBX 13 16 2 21
BITMAP
00E0
01E0
0780
0F00
0E00
1C00
1C00
3F80
3FC0
3FE0
3FE0
3FE0
3FE0
1FE0
0FC0
0700
ENDCHAR

STARTCHAR a
ENCODING 97
SWIDTH 615 0
DWIDTH 31 0
BBX 31 29 0 -1
BITMAP
001FE000
01FFF800
07FFFE00
0FE0FF00
0FC07F00
1FC03F80
1FC03F80
1F803F80
1F803F80
0F803F80
07003F80
00003F80
0003FF80
007FFF80
03FFFF80
0FFE3F80
1FF03F80
3FE03F80
3FC03F80
7F803F80
7F803F80
7F803F80
7F803F80
7F807F80
3FC0FFC0
3FE3FFC0
1FFF9FF8
0FFF0FF8
07F807F0
ENDCHAR

STARTCHAR b
ENCODING 98
SWIDTH 646 0
DWIDTH 32 0
BBX 33 40 -1 -1
BITMAP
00F8000000
3FF8000000
3FF8000000
0FF8000000
07F8000000
03F8000000
03F8000000
03F8000000
03F8000000
03F8000000
03F8000000
03F83E0000
03F8FF8000
03F9FFE000
03FBFFF000
03FF0FF000
03FE07F800
03FC03FC00
03F803FC00
03F803FC00
03F801FE00
03F801FE00
03F801FE00
03F801FE00
03F801FE00
03F801FE00
03F801FE00
03F801FE00
03F801FE00
03F801FE00
03F801FC00
03F801FC00
03F803FC00
03F803F800
03F803F800
03FC07F000
03FF0FE000
03FFFFC000
0387FF0000
0300FC0000
ENDCHAR

STARTCHAR c
ENCODING 99
SWIDTH 542 0
DWIDTH 27 0
BBX 26 29 1 -1
BITMAP
001F8000
00FFF000
03FFFC00
07F07E00
0FE03E00
0FC03F00
1FC07F00
3FC07F00
3F807F00
3F807F00
3F803E00
7F800800
7F800000
7F800000
7F800000
7F800000
7F800000
7F800000
7F800000
7F800000
3FC00380
3FC00780
1FC00700
1FE00F00
0FF01E00
0FF87C00
07FFF800
01FFF000
007FC000
ENDCHAR

STARTCHAR d
ENCODING 100
SWIDTH 646 0
DWIDTH 32 0
BBX 32 40 1 -1
BITMAP
000007C0
0003FFC0
0003FFC0
00007FC0
00003FC0
00001FC0
00001FC0
00001FC0
00001FC0
00001FC0
00001FC0
007C1FC0
01FF1FC0
03FF9FC0
07FFDFC0
0FF0FFC0
1FE07FC0
1FC03FC0
3FC01FC0
3FC01FC0
3F801FC0
7F801FC0
7F801FC0
7F801FC0
7F801FC0
7F801FC0
7F801FC0
7F801FC0
7F801FC0
7F801FC0
7F801FC0
3FC01FC0
3FC01FC0
3FC03FC0
1FE07FC0
1FF0FFE0
0FFFDFF0
07FF9FFC
03FF0FFC
007C0FF8
ENDCHAR

STARTCHAR e
ENCODING 101
SWIDTH 562 0
DWIDTH 28 0
BBX 28 29 1 -1
BITMAP
001F8000
00FFF000
01FFF800
07F0FC00
07E07E00
0FC07F00
1FC03F00
1F803F80
3F803F80
3F803F80
3F803FC0
7F803FC0
7F803FC0
7FFFFFC0
7FFFFFC0
7FFFFFC0
7F800000
7F800000
7F800000
3F800000
3F800000
3FC00380
1FC00780
1FE00700
0FF01E00
07F87C00
03FFF800
01FFF000
007FC000
ENDCHAR

STARTCHAR f
ENCODING 102
SWIDTH 406 0
DWIDTH 20 0
BBX 27 39 0 0
BITMAP
0003F800
001FFF00
007FFF80
00FC3F80
01F81FC0
01F81F80
03F80F80
03F80700
03F80000
03F80000
03F80000
03F80000
7FFFE000
7FFFE000
7FFFE000
03F80000
03F80000
03F80000
03F80000
03F80000
03F80000
03F80000
03F80000
03F80000
03F80000
03F80000
03F80000
03F80000
03F80000
03F80000
03F80000
03F80000
03F80000
03F80000
03F80000
03FC0000
7FFFE000
7FFFE000
7FFFE000
ENDCHAR

STARTCHAR g
ENCODING 103
SWIDTH 604 0
DWIDTH 30 0
BBX 31 37 1 -9
BITMAP
007FC0F8
03FFFFFC
07F0FFF8
0FE07E78
1FC03F00
3FC03F80
3F803F80
3F803FC0
3F803FC0
3F803FC0
3F803FC0
1FC03F80
1FC07F80
0FE07F00
03F9FE00
01FFF800
0FFF0000
1F000000
3E000000
3E000000
3F800000
3FFFFE00
3FFFFF80
1FFFFFE0
0FFFFFE0
01FFFFF0
03FFFFF0
1FE00FF0
3F8003F0
7F0001F0
7E0001F0
7E0003E0
7F0003C0
3FC00FC0
1FFFFF00
07FFFC00
003FC000
ENDCHAR

STARTCHAR h
ENCODING 104
SWIDTH 698 0
DWIDTH 35 0
BBX 36 39 0 0
BITMAP
0038000000
3FF8000000
3FF8000000
1FF8000000
07F8000000
03F8000000
03F8000000
03F8000000
03F8000000
03F8000000
03F8000000
03F8078000
03F83FE000
03F87FF000
03F9FFF800
03FBFFFC00
03FF87FC00
03FE03FC00
03FC01FC00
03F801FC00
03F801FC00
03F801FC00
03F801FC00
03F801FC00
03F801FC00
03F801FC00
03F801FC00
03F801FC00
03F801FC00
03F801FC00
03F801FC00
03F801FC00
03F801FC00
03F801FC00
03F801FC00
03FC01FE00
3FFF9FFFC0
3FFF9FFFC0
3FFF9FFFC0
ENDCHAR

STARTCHAR i
ENCODING 105
SWIDTH 385 0
DWIDTH 19 0
BBX 20 39 0 0
BITMAP
01E000
03F800
07F800
07F800
07F800
07F800
03F000
000000
000000
000000
000000
3FFC00
3FFC00
3FFC00
03FC00
01FC00
01FC00
01FC00
01FC00
01FC00
01FC00
01FC00
01FC00
01FC00
01FC00
01FC00
01FC00
01FC00
01FC00
01FC00
01FC00
01FC00
01FC00
01FC00
01FC00
01FE00
3FFFE0
3FFFE0
3FFFE0
ENDCHAR

STARTCHAR j
ENCODING 106
SWIDTH 375 0
DWIDTH 19 0
BBX 20 48 -4 -9
BITMAP
001F00
003F80
003FC0
007FC0
007FC0
003F80
001F00
000000
000000
000000
000000
03FFC0
03FFC0
03FFC0
003FC0
001FC0
001FC0
001FC0
001FC0
001FC0
001FC0
001FC0
001FC0
001FC0
001FC0
001FC0
001FC0
001FC0
001FC0
001FC0
001FC0
001FC0
001FC0
001FC0
001FC0
001FC0
001FC0
001FC0
001FC0
001F80
001F80
3C1F80
3E1F00
7F1F00
7F3E00
3FFC00
3FF800
0FC000
ENDCHAR

STARTCHAR k
ENCODING 107
SWIDTH 698 0
DWIDTH 35 0
BBX 36 38 0 0
BITMAP
7FF8000000
7FF8000000
7FF8000000
07F8000000
03F8000000
03F8000000
03F8000000
03F8000000
03F8000000
03F8000000
03F8000000
03F81FFF80
03F81FFF80
03F81FFF80
03F803F000
03F803C000
03F8078000
03F80F0000
03F81E0000
03F83C0000
03F8FE0000
03F9FE0000
03FBFF0000
03FFFF0000
03FE7F8000
03FC7FC000
03F83FC000
03F83FE000
03F81FE000
03F80FF000
03F80FF800
03F807F800
03F807FC00
03F803FE00
03FC03FF00
3FFF8FFFE0
3FFF8FFFE0
3FFF8FFFE0
ENDCHAR

STARTCHAR l
ENCODING 108
SWIDTH 385 0
DWIDTH 19 0
BBX 21 38 -1 0
BITMAP
3FFC00
3FFC00
3FFC00
03FC00
01FC00
01FC00
01FC00
01FC00
01FC00
01FC00
01FC00
01FC00
01FC00
01FC00
01FC00
01FC00
01FC00
01FC00
01FC00
01FC00
01FC00
01FC00
01FC00
01FC00
01FC00
01FC00
01FC00
01FC00
01FC00
01FC00
01FC00
01FC00
01FC00
01FC00
01FE00
3FFFE0
3FFFE0
3FFFE0
ENDCHAR

STARTCHAR m
ENCODING 109
SWIDTH 1000 0
DWIDTH 50 0
BBX 51 28 0 0
BITMAP
1FF00F800F8000
7FF83FE03FE000
7FF8FFF0FFF000
07F9FFF1FFF000
03FBFFFBFFF800
03FF07FF07F800
03FE07FE07F800
03FC03FC03F800
03F803F803F800
03F803F803F800
03F803F803F800
03F803F803F800
03F803F803F800
03F803F803F800
03F803F803F800
03F803F803F800
03F803F803F800
03F803F803F800
03F803F803F800
03F803F803F800
03F803F803F800
03F803F803F800
03F803F803F800
03F803F803F800
03FC03FC03FC00
3FFF3FFF3FFF80
3FFF3FFF3FFF80
3FFF3FFF3FFF80
ENDCHAR

STARTCHAR n
ENCODING 110
SWIDTH 698 0
DWIDTH 35 0
BBX 36 28 0 0
BITMAP
03F0078000
7FF83FE000
7FF8FFF000
0FF9FFF800
07FBFFF800
03FF87FC00
03FE03FC00
03FC03FC00
03F801FC00
03F801FC00
03F801FC00
03F801FC00
03F801FC00
03F801FC00
03F801FC00
03F801FC00
03F801FC00
03F801FC00
03F801FC00
03F801FC00
03F801FC00
03F801FC00
03F801FC00
03F801FC00
03FC01FE00
7FFF9FFFC0
7FFF9FFFC0
7FFF9FFFC0
ENDCHAR

STARTCHAR o
ENCODING 111
SWIDTH 615 0
DWIDTH 31 0
BBX 30 29 1 -1
BITMAP
000FC000
00FFF800
01FFFE00
07F07F00
0FE03F80
0FC01FC0
1FC01FC0
3FC01FE0
3F800FE0
3F800FF0
7F800FF0
7F800FF0
7F800FF0
7F800FF0
7F800FF0
7F800FF0
7F800FF0
7F800FF0
7F800FF0
3F800FE0
3F800FE0
3FC01FE0
1FC01FC0
1FC01FC0
0FE03F80
07F07F00
03FFFC00
00FFF800
001FC000
ENDCHAR

STARTCHAR p
ENCODING 112
SWIDTH 646 0
DWIDTH 32 0
BBX 33 37 0 -9
BITMAP
1FF03E0000
3FF0FFC000
3FF9FFE000
07FBFFF000
03FF0FF800
03FE07F800
03FC03FC00
03F803FC00
03F801FC00
03F801FE00
03F801FE00
03F801FE00
03F801FE00
03F801FE00
03F801FE00
03F801FE00
03F801FE00
03F801FE00
03F801FE00
03F801FC00
03F803FC00
03FC03FC00
03FE07F800
03FF0FF000
03FBFFF000
03F9FFE000
03F8FF8000
03F83E0000
03F8000000
03F8000000
03F8000000
03F8000000
03F8000000
03FC000000
3FFFE00000
3FFFE00000
3FFFE00000
ENDCHAR

STARTCHAR q
ENCODING 113
SWIDTH 646 0
DWIDTH 32 0
BBX 32 37 1 -9
BITMAP
003F0000
01FFE1C0
03FFFBC0
07F0FFC0
0FE03FC0
1FC03FC0
1FC01FC0
3FC01FC0
3F801FC0
3F801FC0
7F801FC0
7F801FC0
7F801FC0
7F801FC0
7F801FC0
7F801FC0
7F801FC0
7F801FC0
7F801FC0
3FC01FC0
3FC01FC0
1FC03FC0
1FE07FC0
0FF0FFC0
0FFFFFC0
03FFDFC0
01FF1FC0
007C1FC0
00001FC0
00001FC0
00001FC0
00001FC0
00001FC0
00001FE0
0007FFFC
0007FFFC
0007FFFC
ENDCHAR

STARTCHAR r
ENCODING 114
SWIDTH 542 0
DWIDTH 27 0
BBX 29 28 0 0
BITMAP
03F00700
3FF03FC0
3FF87FE0
0FF8FFE0
03F9C7E0
03FB87E0
03FF07E0
03FE07C0
03FC0380
03F80000
03F80000
03F80000
03F80000
03F80000
03F80000
03F80000
03F80000
03F80000
03F80000
03F80000
03F80000
03F80000
03F80000
03F80000
03FC0000
3FFFE000
3FFFE000
3FFFE000
ENDCHAR

STARTCHAR s
ENCODING 115
SWIDTH 510 0
DWIDTH 26 0
BBX 24 29 1 -1
BITMAP
007E00
03FFE0
0FFFF8
1F81F8
3F00F8
3E0078
3E0038
7E0038
7F0018
7FC000
7FF800
3FFE00
3FFFC0
1FFFE0
1FFFF8
07FFFC
01FFFC
007FFE
000FFE
7001FE
7000FE
70007E
78007E
78007C
7C00FC
7F01F8
7FFFF0
0FFFC0
007E00
ENDCHAR

STARTCHAR t
ENCODING 116
SWIDTH 427 0
DWIDTH 21 0
BBX 22 37 -1 -1
BITMAP
001800
003800
003800
003800
003800
007800
007800
00F800
01F800
03F800
3FFFF0
3FFFF0
3FFFF0
03F800
03F800
03F800
03F800
03F800
03F800
03F800
03F800
03F800
03F800
03F800
03F800
03F800
03F800
03F800
03F800
03F800
03F800
03F800
03FC38
01FFF8
01FFF0
00FFC0
003E00
ENDCHAR

STARTCHAR u
ENCODING 117
SWIDTH 698 0
DWIDTH 35 0
BBX 36 29 0 -1
BITMAP
3FF83FFC00
3FF83FFC00
3FF83FFC00
07F803FC00
03F803FC00
03F801FC00
03F801FC00
03F801FC00
03F801FC00
03F801FC00
03F801FC00
03F801FC00
03F801FC00
03F801FC00
03F801FC00
03F801FC00
03F801FC00
03F801FC00
03F801FC00
03F801FC00
03F801FC00
03FC03FC00
03FC07FC00
03FC0FFC00
01FF3DFC00
01FFF9FE00
00FFF1FFC0
00FFE1FFC0
003F80FFC0
ENDCHAR

STARTCHAR v
ENCODING 118
SWIDTH 635 0
DWIDTH 32 0
BBX 32 27 0 0
BITMAP
7FFF0FFE
7FFF0FFE
7FFF0FFE
0FF800F0
07F000E0
07F800C0
03F801C0
03FC01C0
03FC0180
01FC0380
01FE0300
00FE0700
00FF0700
007F0E00
007F8E00
007F8C00
003F9C00
003FD800
001FF800
001FF800
000FF000
000FF000
000FE000
0007E000
0007E000
0003C000
0003C000
ENDCHAR

STARTCHAR w
ENCODING 119
SWIDTH 906 0
DWIDTH 45 0
BBX 46 27 0 0
BITMAP
7FFC7FFE1FF0
7FFC7FFE1FF0
7FFC7FFE1FF0
0FF00FF007C0
07F00FF00380
07F007F00380
07F807F00300
03F803F80700
03FC07F80700
01FC07FC0600
01FC0FFC0E00
01FE0FFC0C00
00FE0CFE1C00
00FF1CFE1C00
007F1CFF1800
007F187F3800
007FB87F3800
003FB83FB000
003FF03FF000
001FF03FE000
001FF01FE000
000FE01FE000
000FE00FC000
000FE00FC000
0007C00FC000
0007C0078000
000380078000
ENDCHAR

STARTCHAR x
ENCODING 120
SWIDTH 646 0
DWIDTH 32 0
BBX 34 27 -1 0
BITMAP
3FFF87FF00
3FFF87FF00
3FFF87FF00
07FC00F800
03FE00F000
01FE01E000
01FF03C000
00FF878000
007FCF0000
003FDC0000
001FF80000
001FF00000
000FF80000
0007FC0000
0003FE0000
0007FE0000
000FFF0000
001CFF8000
00387FC000
00703FE000
00E01FE000
01C01FF000
03C00FF800
07C00FFC00
3FF87FFF00
3FF87FFF00
3FF87FFF00
ENDCHAR

STARTCHAR y
ENCODING 121
SWIDTH 635 0
DWIDTH 32 0
BBX 33 36 0 -9
BITMAP
3FFF87FE00
3FFF87FE00
3FFF87FE00
0FF800F000
07F800F000
07F800E000
03FC00E000
03FC01C000
01FE01C000
01FE018000
00FF038000
00FF030000
007F870000
007F870000
003FC60000
003FCE0000
001FCC0000
001FFC0000
001FF80000
000FF80000
000FF00000
0007F00000
0007F00000
0003E00000
0003E00000
0001C00000
0001C00000
0001C00000
0703800000
0F83800000
1F87000000
1F87000000
1F8E000000
1FFC000000
0FF8000000
03E0000000
ENDCHAR

STARTCHAR z
ENCODING 122
SWIDTH 521 0
DWIDTH 26 0
BBX 26 27 0 0
BITMAP
1FFFFF00
1FFFFF00
1FFFFF00
1E01FE00
1C01FC00
1C03FC00
1807F800
3807F800
380FF000
001FE000
001FE000
003FC000
007F8000
007F8000
00FF0000
01FE0000
01FE0000
03FC0300
03FC0300
07F80700
0FF00700
0FF00700
1FE00F00
3FC01F00
3FFFFF00
7FFFFF00
7FFFFF00
ENDCHAR

STARTCHAR braceleft
ENCODING 123
SWIDTH 396 0
DWIDTH 20 0
BBX 16 44 2 -7
BITMAP
000E
007C
00F0
01E0
03C0
03C0
07C0
07C0
07C0
07E0
07E0
07E0
07E0
03E0
03E0
03E0
03E0
03C0
0780
0780
0E00
7800
7000
1E00
0700
0780
03C0
03E0
03E0
03E0
03E0
03E0
03E0
07E0
07E0
07C0
07C0
07C0
07C0
03C0
03E0
01F0
00F8
003E
ENDCHAR

STARTCHAR bar
ENCODING 124
SWIDTH 542 0
DWIDTH 27 0
BBX 6 42 11 -1
BITMAP
78
78
78
78
78
78
78
78
78
78
78
78
78
78
78
78
78
78
78
78
78
78
78
78
78
78
78
78
78
78
78
78
78
78
78
78
78
78
78
78
78
78
ENDCHAR

STARTCHAR braceright
ENCODING 125
SWIDTH 396 0
DWIDTH 20 0
BBX 16 44 1 -7
BITMAP
7800
3E00
0F00
07C0
03C0
03E0
03E0
03E0
03E0
03E0
07E0
07E0
07E0
07C0
07C0
07C0
07C0
03C0
01E0
01E0
0070
001E
000E
0078
00F0
01E0
03C0
07C0
07C0
07C0
07C0
07C0
07E0
07E0
07E0
03E0
03E0
03E0
03E0
03C0
07C0
0780
1E00
7800
ENDCHAR

STARTCHAR asciitilde
ENCODING 126
SWIDTH 667 0
DWIDTH 33 0
BBX 29 7 2 13
BITMAP
07F00010
1FFE0030
1FFF8030
383FF0E0
300FFFE0
2001FFC0
20003F00
ENDCHAR

STARTCHAR space
ENCODING 160
SWIDTH 250 0
DWIDTH 16 0
BBX 0 0 0 0
BITMAP
ENDCHAR

STARTCHAR afii10023
ENCODING 161
SWIDTH 719 0
DWIDTH 36 0
BBX 36 46 0 0
BITMAP
003F03F000
007F87F800
007F87F800
007F87F800
007F87F800
003F03F000
0000000000
0000000000
0000000000
3FFFFFFF00
3FFFFFFF80
3FFFFFFF80
03FE007F80
01FE001F80
01FE000F80
01FE000780
01FE000780
01FE000380
01FE000380
01FE038380
01FE038380
01FE038000
01FE038000
01FE078000
01FE0F8000
01FFFF8000
01FFFF8000
01FFFF8000
01FE0F8000
01FE078000
01FE078000
01FE038000
01FE0380C0
01FE0381C0
01FE0381C0
01FE0001C0
01FE0001C0
01FE0003C0
01FE0003C0
01FE0007C0
01FE000FC0
01FE001FC0
03FE007FC0
3FFFFFFFC0
3FFFFFFFC0
3FFFFFFFC0
ENDCHAR

STARTCHAR afii10051
ENCODING 162
SWIDTH 927 0
DWIDTH 46 0
BBX 47 38 0 -1
BITMAP
3FFFFFFFE000
3FFFFFFFE000
3FFFFFFFE000
3F03FC0FE000
3E03FC07E000
3C03FC03E000
7803FC01E000
7803FC01E000
7003FC00E000
7003FC00E000
0003FC000000
0003FC000000
0003FC000000
0003FC07FC00
0003FC3FFF00
0003FC7FFF80
0003FDFFFFC0
0003FFF0FFE0
0003FF803FE0
0003FE003FF0
0003FC001FF0
0003FC001FF8
0003FC001FF8
0003FC000FF8
0003FC000FF8
0003FC000FF8
0003FC000FF8
0003FC000FF8
0003FC000FF8
0003FC000FF8
0003FC000FF8
0003FC000FF0
0003FC001FF0
0007FE001FE0
007FFFE13FE0
007FFFE3FFC0
007FFFE3FF80
00000000FE00
ENDCHAR

STARTCHAR afii10052
ENCODING 163
SWIDTH 687 0
DWIDTH 34 0
BBX 35 47 0 0
BITMAP
00001E0000
00003F0000
00007F0000
0000FF0000
0001FE0000
0003F00000
0007000000
0000000000
0000000000
0000000000
3FFFFFFF80
3FFFFFFF80
3FFFFFFF80
03FF00FF80
01FE003F80
01FE001F80
01FE000F80
01FE000F80
01FE000780
01FE000780
01FE000380
01FE000380
01FE000380
01FE000000
01FE000000
01FE000000
01FE000000
01FE000000
01FE000000
01FE000000
01FE000000
01FE000000
01FE000000
01FE000000
01FE000000
01FE000000
01FE000000
01FE000000
01FE000000
01FE000000
01FE000000
01FE000000
01FE000000
03FF000000
3FFFFC0000
3FFFFC0000
3FFFFC0000
ENDCHAR

STARTCHAR afii10053
ENCODING 164
SWIDTH 750 0
DWIDTH 38 0
BBX 36 39 1 -1
BITMAP
0000FFC000
0007FFFC00
003FFFFF00
007F807F80
01FF003F80
03FE001F80
07FC000F80
07F8000780
0FF8000780
0FF0000380
1FF0000380
1FF00003C0
3FF00003C0
3FE0000000
3FE0000000
3FE0000000
3FE0000000
7FFFFF0000
7FFFFF0000
7FFFFF0000
7FE0000000
7FE0000000
3FE0000000
3FE0000000
3FE0000000
3FF00000E0
3FF00001C0
1FF00001C0
1FF00001C0
1FF80003C0
0FF8000780
07FC000780
07FE000F00
03FF003E00
01FFC0FC00
00FFFFF800
003FFFF000
000FFFC000
0001FE0000
ENDCHAR

STARTCHAR afii10054
ENCODING 165
SWIDTH 646 0
DWIDTH 32 0
BBX 30 39 1 -1
BITMAP
001FF000
00FFFF00
03FFFFC0
07F03FE0
0FE00FE0
1FC007E0
1F8003E0
3F8001E0
3F8001E0
3FC000E0
3FC000E0
3FE000E0
3FF000E0
3FFC0000
1FFF0000
1FFFC000
0FFFF000
07FFFC00
03FFFF00
01FFFF80
007FFFC0
000FFFE0
0003FFF0
0001FFF0
00007FF0
70001FF8
78000FF8
78000FF8
780007F8
780007F8
7C0007F8
7C0007F0
7E0007F0
7F000FE0
7F801FE0
7FE07F80
3FFFFF00
0FFFFC00
007FE000
ENDCHAR

STARTCHAR afii10055
ENCODING 166
SWIDTH 448 0
DWIDTH 22 0
BBX 22 37 0 0
BITMAP
7FFFF8
7FFFF8
7FFFF8
03FF00
01FE00
01FE00
01FE00
01FE00
01FE00
01FE00
01FE00
01FE00
01FE00
01FE00
01FE00
01FE00
01FE00
01FE00
01FE00
01FE00
01FE00
01FE00
01FE00
01FE00
01FE00
01FE00
01FE00
01FE00
01FE00
01FE00
01FE00
01FE00
01FE00
03FF00
7FFFF8
7FFFF8
7FFFF8
ENDCHAR

STARTCHAR afii10056
ENCODING 167
SWIDTH 448 0
DWIDTH 22 0
BBX 23 46 0 0
BITMAP
3F03F0
7F87F8
7F87F8
7F87F8
7F87F8
3F03F0
000000
000000
000000
7FFFF8
7FFFF8
7FFFF8
03FF00
01FE00
01FE00
01FE00
01FE00
01FE00
01FE00
01FE00
01FE00
01FE00
01FE00
01FE00
01FE00
01FE00
01FE00
01FE00
01FE00
01FE00
01FE00
01FE00
01FE00
01FE00
01FE00
01FE00
01FE00
01FE00
01FE00
01FE00
01FE00
01FE00
03FF00
7FFFF8
7FFFF8
7FFFF8
ENDCHAR

STARTCHAR afii10057
ENCODING 168
SWIDTH 635 0
DWIDTH 32 0
BBX 33 38 -1 -1
BITMAP
000FFFFE00
000FFFFE00
000FFFFE00
00003FE000
00003FC000
00003FC000
00003FC000
00003FC000
00003FC000
00003FC000
00003FC000
00003FC000
00003FC000
00003FC000
00003FC000
00003FC000
00003FC000
00003FC000
00003FC000
00003FC000
00003FC000
00003FC000
00003FC000
0F803FC000
1FC03FC000
1FE03FC000
3FE03FC000
3FE03FC000
3FE03FC000
3FC03FC000
3F803FC000
3F803FC000
1F007F8000
0F807F0000
0FC0FF0000
07FFFC0000
01FFF80000
003FC00000
ENDCHAR

STARTCHAR afii10058
ENCODING 169
SWIDTH 1164 0
DWIDTH 58 0
BBX 60 38 -1 -1
BITMAP
003FFFFFFFE00000
003FFFFFFFE00000
003FFFFFFFE00000
0007F007FC000000
0003E007F8000000
0003E007F8000000
0003E007F8000000
0001E007F8000000
0001E007F8000000
0001E007F8000000
0001C007F8000000
0001C007F8000000
0001C007F8000000
0001C007F8000000
0001C007F8000000
0003C007F8000000
0003C007F8000000
0003C007FFFF8000
0003C007FFFFF000
0003C007FFFFFC00
0003C007F807FE00
00038007F801FF00
00038007F800FF80
00038007F800FF80
00038007F8007FC0
00038007F8007FC0
00038007F8007FC0
00078007F8007FC0
0E070007F8007FC0
1F070007F8007FC0
3F870007F800FF80
3F8F0007F800FF80
3F8E0007F801FF00
3FFE000FFC07FE00
3FFC00FFFFFFFC00
1FF800FFFFFFF000
0FF000FFFFFF8000
03C0000000000000
ENDCHAR

STARTCHAR afii10059
ENCODING 170
SWIDTH 1171 0
DWIDTH 59 0
BBX 59 37 0 0
BITMAP
3FFFF1FFFF800000
3FFFF1FFFF800000
3FFFF1FFFF800000
03FF001FF8000000
01FE000FF0000000
01FE000FF0000000
01FE000FF0000000
01FE000FF0000000
01FE000FF0000000
01FE000FF0000000
01FE000FF0000000
01FE000FF0000000
01FE000FF0000000
01FE000FF0000000
01FE000FF0000000
01FE000FF0000000
01FE000FF0000000
01FFFFFFFFFF0000
01FFFFFFFFFFE000
01FFFFFFFFFFF800
01FE000FF00FFE00
01FE000FF003FE00
01FE000FF001FF00
01FE000FF001FF80
01FE000FF000FF80
01FE000FF000FF80
01FE000FF000FF80
01FE000FF000FF80
01FE000FF000FF80
01FE000FF000FF80
01FE000FF001FF00
01FE000FF001FF00
01FE000FF003FE00
03FF001FF807FC00
3FFFF1FFFFFFF800
3FFFF1FFFFFFE000
3FFFF1FFFFFF0000
ENDCHAR

STARTCHAR afii10060
ENCODING 171
SWIDTH 946 0
DWIDTH 47 0
BBX 47 37 0 0
BITMAP
3FFFFFFFC000
3FFFFFFFC000
3FFFFFFFC000
3F83FC1FC000
3E03FC07C000
3C03FC03C000
7803FC03C000
7803FC01C000
7003FC01C000
7003FC00C000
7003FC00C000
0003FC000000
0003FC000000
0003FC07F000
0003FC3FFC00
0003FC7FFE00
0003FDFFFF00
0003FFFFFF00
0003FFC1FF80
0003FF00FF80
0003FC007F80
0003FC007F80
0003FC007F80
0003FC007F80
0003FC007F80
0003FC007F80
0003FC007F80
0003FC007F80
0003FC007F80
0003FC007F80
0003FC007F80
0003FC007F80
0003FC007F80
0007FE00FFC0
007FFFCFFFFC
007FFFCFFFFC
007FFFCFFFFC
ENDCHAR

STARTCHAR afii10061
ENCODING 172
SWIDTH 831 0
DWIDTH 42 0
BBX 43 48 0 0
BITMAP
000000400000
000001F00000
000003F80000
000007F80000
00000FF00000
00001FE00000
00003E000000
000020000000
000000000000
000000000000
000000007800
3FFFF001FC00
3FFFF003FE00
3FFFF003FF00
03FE0007FF00
01FE0007FF00
01FE000FFE00
01FE000E7C00
01FE001C3800
01FE001C0000
01FE001C0000
01FE00380000
01FE00380000
01FE00780000
01FE00700000
01FE00F00000
01FE01E00000
01FE03C00000
01FFFF800000
01FFFFF00000
01FFFFFC0000
01FE07FE0000
01FE03FE0000
01FE01FF0000
01FE00FF0000
01FE00FF8000
01FE007F8000
01FE007FC000
01FE007FC000
01FE003FE000
01FE003FE000
01FE001FF000
01FE001FF000
01FE000FF800
03FF000FFC00
3FFFF00FFF80
3FFFF007FF80
3FFFF007FF80
ENDCHAR

STARTCHAR hyphen
ENCODING 173
SWIDTH 323 0
DWIDTH 16 0
BBX 16 5 0 11
BITMAP
3FFC
3FFC
3FFC
3FFC
3FFC
ENDCHAR

STARTCHAR afii10062
ENCODING 174
SWIDTH 748 0
DWIDTH 37 0
BBX 41 49 -2 -1
BITMAP
0007803C0000
000FC07E0000
000FC07E0000
000FC07E0000
0007803E0000
0007C07C0000
0003FFF80000
00007FE00000
000000000000
000000000000
000000000000
3FFFF01FFE00
3FFFF01FFE00
3FFFF01FFE00
07FE0001F000
03FE0001E000
03FE0001C000
01FF0001C000
01FF00038000
00FF80038000
00FF80070000
007FC0070000
007FC00F0000
003FE00E0000
003FE00E0000
001FF01C0000
001FF01C0000
000FF0380000
000FF8380000
0007F8700000
0007FC700000
0003FC700000
0003FEE00000
0001FEE00000
0001FFC00000
0000FFC00000
0000FF800000
00007F800000
00007F000000
01E03F000000
03F03F000000
07F81E000000
07F81E000000
07F81C000000
07F83C000000
03FC78000000
03FFF0000000
00FFE0000000
003F00000000
ENDCHAR

STARTCHAR afii10145
ENCODING 175
SWIDTH 865 0
DWIDTH 43 0
BBX 44 45 0 -8
BITMAP
3FFFF0FFFFC0
3FFFF0FFFFC0
3FFFF0FFFFC0
03FF000FFC00
01FE0007F800
01FE0007F800
01FE0007F800
01FE0007F800
01FE0007F800
01FE0007F800
01FE0007F800
01FE0007F800
01FE0007F800
01FE0007F800
01FE0007F800
01FE0007F800
01FE0007F800
01FE0007F800
01FE0007F800
01FE0007F800
01FE0007F800
01FE0007F800
01FE0007F800
01FE0007F800
01FE0007F800
01FE0007F800
01FE0007F800
01FE0007F800
01FE0007F800
01FE0007F800
01FE0007F800
01FE0007F800
01FE0007F800
03FF000FFC00
3FFFFFFFFFC0
3FFFFFFFFFC0
3FFFFFFFFFC0
0000FFF00000
00003FC00000
00001F800000
00001F800000
00000F000000
00000F000000
00000F000000
000007000000
ENDCHAR

STARTCHAR afii10017
ENCODING 176
SWIDTH 854 0
DWIDTH 43 0
BBX 43 38 0 0
BITMAP
00000F000000
00001F000000
00001F800000
00003F800000
00003F800000
00003FC00000
00007FC00000
00007FE00000
0000FFE00000
0000FFE00000
0001FFF00000
0001CFF00000
0001CFF80000
000387F80000
000387FC0000
000707FC0000
000703FC0000
000F03FE0000
000E01FE0000
000E01FF0000
001C01FF0000
001C00FF0000
003800FF8000
0038007F8000
007FFFFFC000
007FFFFFC000
007FFFFFC000
00E0003FE000
00E0001FE000
01C0001FF000
01C0001FF000
03C0000FF000
03C0000FF800
07C0000FF800
0FE0000FFC00
7FFE01FFFFC0
7FFE01FFFFC0
7FFE01FFFFC0
ENDCHAR

STARTCHAR afii10018
ENCODING 177
SWIDTH 792 0
DWIDTH 40 0
BBX 40 37 0 0
BITMAP
3FFFFFFFC0
3FFFFFFFC0
3FFFFFFFC0
03FF003FC0
01FE001FC0
01FE000FE0
01FE0007E0
01FE0003E0
01FE0003E0
01FE0001E0
01FE0001E0
01FE0001E0
01FE0000E0
01FE000000
01FE000000
01FE000000
01FFFFF000
01FFFFFF80
01FFFFFFC0
01FE007FF0
01FE001FF0
01FE000FF8
01FE000FF8
01FE000FFC
01FE0007FC
01FE0007FC
01FE0007FC
01FE0007FC
01FE0007FC
01FE0007FC
01FE000FF8
01FE000FF8
01FE001FF0
03FF007FE0
3FFFFFFFC0
3FFFFFFF00
3FFFFFF000
ENDCHAR

STARTCHAR afii10019
ENCODING 178
SWIDTH 792 0
DWIDTH 40 0
BBX 40 37 0 0
BITMAP
3FFFFFE000
3FFFFFFE00
3FFFFFFF80
03FF01FFC0
01FE007FC0
01FE003FE0
01FE001FE0
01FE001FF0
01FE001FF0
01FE001FF0
01FE001FF0
01FE001FE0
01FE001FE0
01FE001FE0
01FE003FC0
01FE007F80
01FE00FE00
01FFFFF800
01FFFFE000
01FFFFFF00
01FE007FC0
01FE001FF0
01FE000FF0
01FE000FF8
01FE0007FC
01FE0007FC
01FE0007FC
01FE0007FC
01FE0007FC
01FE0007FC
01FE000FF8
01FE000FF8
01FE001FF0
03FF007FE0
3FFFFFFFC0
3FFFFFFF00
3FFFFFF800
ENDCHAR

STARTCHAR afii10020
ENCODING 179
SWIDTH 687 0
DWIDTH 34 0
BBX 35 37 0 0
BITMAP
3FFFFFFF80
3FFFFFFF80
3FFFFFFF80
03FF00FF80
01FE003F80
01FE001F80
01FE000F80
01FE000F80
01FE000780
01FE000780
01FE000380
01FE000380
01FE000380
01FE000000
01FE000000
01FE000000
01FE000000
01FE000000
01FE000000
01FE000000
01FE000000
01FE000000
01FE000000
01FE000000
01FE000000
01FE000000
01FE000000
01FE000000
01FE000000
01FE000000
01FE000000
01FE000000
01FE000000
03FF000000
3FFFFC0000
3FFFFC0000
3FFFFC0000
ENDCHAR

STARTCHAR afii10021
ENCODING 180
SWIDTH 813 0
DWIDTH 41 0
BBX 42 45 -2 -8
BITMAP
007FFFFFFF00
007FFFFFFF00
007FFFFFFF00
000FE01FF000
0007C01FE000
0007C01FE000
0003C01FE000
0003801FE000
0003801FE000
0003801FE000
0003801FE000
0003801FE000
0003801FE000
0003801FE000
0003801FE000
0007801FE000
0007801FE000
0007001FE000
0007001FE000
0007001FE000
0007001FE000
000F001FE000
000E001FE000
000E001FE000
000E001FE000
001C001FE000
001C001FE000
001C001FE000
0038001FE000
0038001FE000
0070001FE000
00F0001FE000
01E0001FE000
03C0001FF000
3FFFFFFFFF80
3FFFFFFFFF80
3FFFFFFFFF80
3F8000007F80
3F0000001F80
3E0000000F80
3C0000000780
380000000780
380000000380
380000000380
300000000380
ENDCHAR

STARTCHAR afii10022
ENCODING 181
SWIDTH 719 0
DWIDTH 36 0
BBX 36 37 0 0
BITMAP
3FFFFFFF00
3FFFFFFF80
3FFFFFFF80
03FE007F80
01FE001F80
01FE000F80
01FE000780
01FE000780
01FE000380
01FE000380
01FE038380
01FE038380
01FE038000
01FE038000
01FE078000
01FE0F8000
01FFFF8000
01FFFF8000
01FFFF8000
01FE0F8000
01FE078000
01FE078000
01FE038000
01FE0380C0
01FE0381C0
01FE0381C0
01FE0001C0
01FE0001C0
01FE0003C0
01FE0003C0
01FE0007C0
01FE000FC0
01FE001FC0
03FE007FC0
3FFFFFFFC0
3FFFFFFFC0
3FFFFFFFC0
ENDCHAR

STARTCHAR afii10024
ENCODING 182
SWIDTH 1189 0
DWIDTH 59 0
BBX 62 38 -1 0
BITMAP
01E0000000001E00
03F803FFFF007F80
07FC03FFFF00FF80
07FE03FFFF00FFC0
0FFE003FF001FFC0
07FF001FE001FFC0
07FF001FE003FF80
07FF001FE003FF80
01C7801FE0078E00
0003801FE0070000
0003801FE0070000
0003C01FE00F0000
0001C01FE00E0000
0001E01FE00E0000
0001E01FE01E0000
0000F01FE01C0000
0000F01FE03C0000
00007C1FE0F80000
00003FFFFFF00000
0000FFFFFFFE0000
0007FFFFFFFF8000
000FFC1FE0FFC000
000FF81FE07FC000
001FF01FE03FE000
001FE01FE01FE000
003FE01FE01FF000
003FE01FE00FF000
007FC01FE00FF800
007FC01FE00FF800
00FF801FE007FC00
00FF801FE007FC00
01FF001FE003FE00
01FF001FE003FE00
03FF001FE003FF00
03FE003FF001FF00
3FFE03FFFF01FFF0
3FFC03FFFF00FFF0
3FFC03FFFF00FFF0
ENDCHAR

STARTCHAR afii10025
ENCODING 183
SWIDTH 689 0
DWIDTH 34 0
BBX 33 39 0 -1
BITMAP
000FFC0000
00FFFFC000
07FFFFF000
0FF81FF800
0FE007FC00
0FC003FC00
0F8003FE00
0F0001FE00
0F0001FE00
0E0001FE00
0E0001FE00
1E0001FE00
1C0001FE00
000003FC00
000007FC00
000007F800
00001FE000
0001FFC000
001FF80000
001FFFC000
001FFFF000
00001FF800
000007FC00
000003FE00
000001FE00
000001FF00
000001FF00
000001FF00
000001FF00
300001FF00
380001FF00
3C0001FE00
1C0003FE00
1E0007FE00
0F800FFC00
07F07FF800
03FFFFF000
01FFFFC000
003FFE0000
ENDCHAR

STARTCHAR afii10026
ENCODING 184
SWIDTH 880 0
DWIDTH 44 0
BBX 45 37 -1 0
BITMAP
3FFFF07FFFE0
3FFFF07FFFE0
3FFFF07FFFE0
03FF0007FE00
01FE0003FC00
01FE0007FC00
01FE0007FC00
01FE000FFC00
01FE001FFC00
01FE001FFC00
01FE003FFC00
01FE007BFC00
01FE0073FC00
01FE00F3FC00
01FE01E3FC00
01FE01C3FC00
01FE03C3FC00
01FE0783FC00
01FE0703FC00
01FE0F03FC00
01FE0E03FC00
01FE1C03FC00
01FE3C03FC00
01FE3803FC00
01FE7003FC00
01FEF003FC00
01FEE003FC00
01FFC003FC00
01FFC003FC00
01FF8003FC00
01FF0003FC00
01FF0003FC00
01FE0003FC00
03FF0007FE00
3FFFF07FFFE0
3FFFF07FFFE0
3FFFF07FFFE0
ENDCHAR

STARTCHAR afii10027
ENCODING 185
SWIDTH 880 0
DWIDTH 44 0
BBX 45 48 -1 0
BITMAP
0001E00F0000
0003F01F8000
0003F01F8000
0003F01F8000
0001E00F8000
0001F01F0000
0000FFFE0000
00001FF80000
000000000000
000000000000
000000000000
3FFFF07FFFE0
3FFFF07FFFE0
3FFFF07FFFE0
03FF0007FE00
01FE0003FC00
01FE0007FC00
01FE0007FC00
01FE000FFC00
01FE001FFC00
01FE001FFC00
01FE003FFC00
01FE007BFC00
01FE0073FC00
01FE00F3FC00
01FE01E3FC00
01FE01C3FC00
01FE03C3FC00
01FE0783FC00
01FE0703FC00
01FE0F03FC00
01FE0E03FC00
01FE1C03FC00
01FE3C03FC00
01FE3803FC00
01FE7003FC00
01FEF003FC00
01FEE003FC00
01FFC003FC00
01FFC003FC00
01FF8003FC00
01FF0003FC00
01FF0003FC00
01FE0003FC00
03FF0007FE00
3FFFF07FFFE0
3FFFF07FFFE0
3FFFF07FFFE0
ENDCHAR

STARTCHAR afii10028
ENCODING 186
SWIDTH 831 0
DWIDTH 42 0
BBX 43 38 0 0
BITMAP
000000007800
3FFFF001FC00
3FFFF003FE00
3FFFF003FF00
03FE0007FF00
01FE0007FF00
01FE000FFE00
01FE000E7C00
01FE001C3800
01FE001C0000
01FE001C0000
01FE00380000
01FE00380000
01FE00780000
01FE00700000
01FE00F00000
01FE01E00000
01FE03C00000
01FFFF800000
01FFFFF00000
01FFFFFC0000
01FE07FE0000
01FE03FE0000
01FE01FF0000
01FE00FF0000
01FE00FF8000
01FE007F8000
01FE007FC000
01FE007FC000
01FE003FE000
01FE003FE000
01FE001FF000
01FE001FF000
01FE000FF800
03FF000FFC00
3FFFF00FFF80
3FFFF007FF80
3FFFF007FF80
ENDCHAR

STARTCHAR afii10029
ENCODING 187
SWIDTH 844 0
DWIDTH 42 0
BBX 43 38 -1 -1
BITMAP
007FFFFFFFC0
007FFFFFFFC0
007FFFFFFFC0
0007F00FF800
0003E00FF000
0003C00FF000
0003C00FF000
0003C00FF000
0003C00FF000
0003C00FF000
0003800FF000
0003800FF000
0003800FF000
0003800FF000
0003800FF000
0003800FF000
0003800FF000
0003800FF000
0003800FF000
0003800FF000
0003800FF000
0003000FF000
0003000FF000
0007000FF000
0007000FF000
0007000FF000
0007000FF000
0007000FF000
0E06000FF000
3F06000FF000
3F8E000FF000
7F8E000FF000
7F9C000FF000
7FFC001FF800
3FF801FFFFC0
3FF001FFFFC0
1FE001FFFFC0
078000000000
ENDCHAR

STARTCHAR afii10030
ENCODING 188
SWIDTH 1052 0
DWIDTH 53 0
BBX 53 37 0 0
BITMAP
3FFFC0001FFFE0
3FFFC0001FFFE0
3FFFE0001FFFE0
01DFE0003BFC00
01DFF0003BFC00
01DFF0003BFC00
01CFF00073FC00
01CFF80073FC00
01C7F80073FC00
01C7F800E3FC00
01C7FC00E3FC00
01C3FC01E3FC00
01C3FE01C3FC00
01C3FE01C3FC00
01C1FE0383FC00
01C1FF0383FC00
01C0FF0383FC00
01C0FF0703FC00
01C0FF8703FC00
01C07F8703FC00
01C07F8E03FC00
01C07FCE03FC00
01C03FDE03FC00
01C03FFC03FC00
01C01FFC03FC00
01C01FF803FC00
01C01FF803FC00
01C00FF803FC00
01C00FF003FC00
01C007F003FC00
01C007F003FC00
03E007E003FC00
03E003E003FC00
07F003E003FC00
3FFF03C07FFFE0
3FFF01C07FFFE0
3FFF01807FFFE0
ENDCHAR

STARTCHAR afii10031
ENCODING 189
SWIDTH 865 0
DWIDTH 43 0
BBX 44 37 0 0
BITMAP
3FFFF0FFFFC0
3FFFF0FFFFC0
3FFFF0FFFFC0
03FF000FFC00
01FE0007F800
01FE0007F800
01FE0007F800
01FE0007F800
01FE0007F800
01FE0007F800
01FE0007F800
01FE0007F800
01FE0007F800
01FE0007F800
01FE0007F800
01FE0007F800
01FFFFFFF800
01FFFFFFF800
01FFFFFFF800
01FE0007F800
01FE0007F800
01FE0007F800
01FE0007F800
01FE0007F800
01FE0007F800
01FE0007F800
01FE0007F800
01FE0007F800
01FE0007F800
01FE0007F800
01FE0007F800
01FE0007F800
01FE0007F800
03FF000FFC00
3FFFF0FFFFC0
3FFFF0FFFFC0
3FFFF0FFFFC0
ENDCHAR

STARTCHAR afii10032
ENCODING 190
SWIDTH 823 0
DWIDTH 41 0
BBX 39 39 1 -1
BITMAP
0001FF0000
000FFFE000
003FFFF800
00FF01FE00
01FE00FF00
03FC007F80
07F8003FC0
07F8003FC0
0FF0001FE0
0FF0001FF0
1FF0001FF0
1FE0000FF0
3FE0000FF8
3FE0000FF8
3FE0000FF8
3FE0000FF8
3FE0000FFC
7FE0000FFC
7FE0000FFC
7FE0000FFC
7FE0000FFC
7FE0000FFC
7FE0000FFC
3FE0000FF8
3FE0000FF8
3FE0000FF8
3FE0000FF8
1FE0000FF0
1FF0001FF0
0FF0001FE0
0FF0001FE0
07F8003FC0
07F8003FC0
03FC007F80
01FE00FF00
00FF01FE00
003FFFF800
000FFFE000
0001FF0000
ENDCHAR

STARTCHAR afii10033
ENCODING 191
SWIDTH 865 0
DWIDTH 43 0
BBX 44 37 0 0
BITMAP
3FFFFFFFFFC0
3FFFFFFFFFC0
3FFFFFFFFFC0
03FE0007FC00
01FE0007F800
01FE0007F800
01FE0007F800
01FE0007F800
01FE0007F800
01FE0007F800
01FE0007F800
01FE0007F800
01FE0007F800
01FE0007F800
01FE0007F800
01FE0007F800
01FE0007F800
01FE0007F800
01FE0007F800
01FE0007F800
01FE0007F800
01FE0007F800
01FE0007F800
01FE0007F800
01FE0007F800
01FE0007F800
01FE0007F800
01FE0007F800
01FE0007F800
01FE0007F800
01FE0007F800
01FE0007F800
01FE0007F800
03FF000FFC00
3FFFF0FFFFC0
3FFFF0FFFFC0
3FFFF0FFFFC0
ENDCHAR

STARTCHAR afii10034
ENCODING 192
SWIDTH 729 0
DWIDTH 36 0
BBX 37 37 0 0
BITMAP
3FFFFFC000
3FFFFFF800
3FFFFFFE00
03FF03FF00
01FE00FF80
01FE007FC0
01FE007FC0
01FE003FE0
01FE003FE0
01FE003FE0
01FE003FE0
01FE003FE0
01FE003FE0
01FE003FE0
01FE007FC0
01FE007FC0
01FE00FF80
01FE03FF00
01FFFFFE00
01FFFFF800
01FFFFC000
01FE000000
01FE000000
01FE000000
01FE000000
01FE000000
01FE000000
01FE000000
01FE000000
01FE000000
01FE000000
01FE000000
01FE000000
03FE000000
3FFFFC0000
3FFFFC0000
3FFFFC0000
ENDCHAR

STARTCHAR afii10035
ENCODING 193
SWIDTH 750 0
DWIDTH 38 0
BBX 36 39 1 -1
BITMAP
0000FF8000
000FFFFC00
003FFFFF00
007FC0FF80
01FF003F80
03FE001F80
03FC000F80
07F8000780
0FF8000780
0FF0000780
1FF0000380
1FF0000380
3FE0000380
3FE0000380
3FE0000000
3FE0000000
3FE0000000
7FE0000000
7FE0000000
7FE0000000
7FE0000000
7FE0000000
7FE0000000
7FE0000000
3FE0000000
3FE00001C0
3FE00001C0
3FF00001C0
1FF00003C0
1FF8000380
0FF8000780
0FFC000F00
07FC001F00
03FF003E00
01FF80FC00
00FFFFF800
003FFFE000
000FFFC000
0001FC0000
ENDCHAR

STARTCHAR afii10036
ENCODING 194
SWIDTH 729 0
DWIDTH 36 0
BBX 38 37 -1 0
BITMAP
3FFFFFFFF0
3FFFFFFFF0
3FFFFFFFF0
3F81FE07F0
3F01FE03F0
3E01FE01F0
3C01FE00F0
3C01FE00F0
3801FE0070
3801FE0070
3801FE0070
3801FE0030
3001FE0030
3001FE0030
0001FE0000
0001FE0000
0001FE0000
0001FE0000
0001FE0000
0001FE0000
0001FE0000
0001FE0000
0001FE0000
0001FE0000
0001FE0000
0001FE0000
0001FE0000
0001FE0000
0001FE0000
0001FE0000
0001FE0000
0001FE0000
0001FE0000
0001FF0000
007FFFF800
007FFFF800
007FFFF800
ENDCHAR

STARTCHAR afii10037
ENCODING 195
SWIDTH 748 0
DWIDTH 37 0
BBX 40 38 -1 -1
BITMAP
7FFFE01FFC
7FFFE01FFC
7FFFE01FFC
0FFE0003F0
07FC0003C0
03FE0003C0
03FE000380
01FF000380
01FF000700
00FF800700
00FF800E00
007FC00E00
007FC01E00
003FE01C00
003FE01C00
001FE03800
001FF03800
000FF07000
000FF87000
0007F8E000
0007FCE000
0003FCE000
0003FFC000
0001FFC000
0001FF8000
0000FF8000
0000FF0000
00007F0000
01C07E0000
07E07E0000
07F03E0000
07F03C0000
07F01C0000
07F8380000
07F8F00000
03FFE00000
01FFC00000
007F000000
ENDCHAR

STARTCHAR afii10038
ENCODING 196
SWIDTH 934 0
DWIDTH 47 0
BBX 44 37 1 0
BITMAP
000FFFFF0000
000FFFFF0000
000FFFFF0000
00007FE00000
00003FC00000
0003FFFC0000
007FFFFFE000
01FFFFFFF800
03FC3FC3FE00
0FF03FC0FF00
0FE03FC0FF80
1FE03FC07F80
3FE03FC03FC0
3FC03FC03FC0
3FC03FC03FC0
7FC03FC03FE0
7FC03FC03FE0
7FC03FC03FE0
7FC03FC03FE0
7FC03FC03FE0
7FC03FC03FE0
7FC03FC03FE0
3FC03FC03FC0
3FC03FC03FC0
3FE03FC07FC0
1FE03FC07F80
0FF03FC0FF80
0FF83FC0FF00
07FC3FC3FE00
01FFFFFFF800
007FFFFFE000
00003FC00000
00003FC00000
00007FE00000
000FFFFF0000
000FFFFF0000
000FFFFF0000
ENDCHAR

STARTCHAR afii10039
ENCODING 197
SWIDTH 802 0
DWIDTH 40 0
BBX 42 37 -1 0
BITMAP
3FFFF8FFFE00
3FFFF8FFFE00
3FFFF8FFFE00
07FF000FF000
03FF0007C000
03FF00078000
01FF800F8000
00FFC00F0000
007FC01E0000
007FE03C0000
003FF0780000
001FF8F00000
000FF9F00000
000FFDE00000
0007FFC00000
0003FF800000
0001FF800000
0001FF800000
0000FFC00000
00007FE00000
00007FF00000
0000FFF00000
0001FFF80000
0003CFFC0000
00078FFE0000
000F07FE0000
000E03FF0000
001E01FF8000
003C01FF8000
007800FFC000
00F0007FE000
01F0003FF000
03F0003FF000
07F8003FF800
3FFF83FFFF00
3FFF83FFFF00
3FFF83FFFF00
ENDCHAR

STARTCHAR afii10040
ENCODING 198
SWIDTH 882 0
DWIDTH 44 0
BBX 45 45 0 -8
BITMAP
3FFFF0FFFFC0
3FFFF0FFFFC0
3FFFF0FFFFC0
03FF000FFC00
01FE0007F800
01FE0007F800
01FE0007F800
01FE0007F800
01FE0007F800
01FE0007F800
01FE0007F800
01FE0007F800
01FE0007F800
01FE0007F800
01FE0007F800
01FE0007F800
01FE0007F800
01FE0007F800
01FE0007F800
01FE0007F800
01FE0007F800
01FE0007F800
01FE0007F800
01FE0007F800
01FE0007F800
01FE0007F800
01FE0007F800
01FE0007F800
01FE0007F800
01FE0007F800
01FE0007F800
01FE0007F800
01FE0007F800
03FE0007FC00
3FFFFFFFFFE0
3FFFFFFFFFE0
3FFFFFFFFFE0
000000003FE0
0000000007E0
0000000003E0
0000000001E0
0000000001E0
0000000000E0
0000000000E0
0000000000E0
ENDCHAR

STARTCHAR afii10041
ENCODING 199
SWIDTH 817 0
DWIDTH 41 0
BBX 41 37 0 0
BITMAP
7FFFE3FFFF00
7FFFE3FFFF00
7FFFE3FFFF00
07FE003FF000
03FC001FE000
03FC001FE000
03FC001FE000
03FC001FE000
03FC001FE000
03FC001FE000
03FC001FE000
03FC001FE000
03FC001FE000
03FC001FE000
03FC001FE000
03FC001FE000
03FE003FE000
01FE007FE000
01FF83FFE000
00FFFFDFE000
007FFF9FE000
003FFE1FE000
000FF81FE000
0000001FE000
0000001FE000
0000001FE000
0000001FE000
0000001FE000
0000001FE000
0000001FE000
0000001FE000
0000001FE000
0000001FE000
0000003FF000
000003FFFF00
000003FFFF00
000003FFFF00
ENDCHAR

STARTCHAR afii10042
ENCODING 200
SWIDTH 1133 0
DWIDTH 57 0
BBX 57 37 0 0
BITMAP
7FFF07FFE0FFFE00
7FFF07FFE0FFFE00
7FFF07FFE0FFFE00
0FFC01FF803FF000
07F800FF001FE000
07F800FF001FE000
07F800FF001FE000
07F800FF001FE000
07F800FF001FE000
07F800FF001FE000
07F800FF001FE000
07F800FF001FE000
07F800FF001FE000
07F800FF001FE000
07F800FF001FE000
07F800FF001FE000
07F800FF001FE000
07F800FF001FE000
07F800FF001FE000
07F800FF001FE000
07F800FF001FE000
07F800FF001FE000
07F800FF001FE000
07F800FF001FE000
07F800FF001FE000
07F800FF001FE000
07F800FF001FE000
07F800FF001FE000
07F800FF001FE000
07F800FF001FE000
07F800FF001FE000
07F800FF001FE000
07F800FF001FE000
0FF800FF001FF000
7FFFFFFFFFFFFE00
7FFFFFFFFFFFFE00
7FFFFFFFFFFFFE00
ENDCHAR

STARTCHAR afii10043
ENCODING 201
SWIDTH 1153 0
DWIDTH 58 0
BBX 57 45 0 -8
BITMAP
7FFF07FFE0FFFE00
7FFF07FFE0FFFE00
7FFF07FFE0FFFE00
0FFC01FF803FF000
07F800FF001FE000
07F800FF001FE000
07F800FF001FE000
07F800FF001FE000
07F800FF001FE000
07F800FF001FE000
07F800FF001FE000
07F800FF001FE000
07F800FF001FE000
07F800FF001FE000
07F800FF001FE000
07F800FF001FE000
07F800FF001FE000
07F800FF001FE000
07F800FF001FE000
07F800FF001FE000
07F800FF001FE000
07F800FF001FE000
07F800FF001FE000
07F800FF001FE000
07F800FF001FE000
07F800FF001FE000
07F800FF001FE000
07F800FF001FE000
07F800FF001FE000
07F800FF001FE000
07F800FF001FE000
07F800FF001FE000
07F800FF001FE000
0FF800FF001FF000
7FFFFFFFFFFFFF00
7FFFFFFFFFFFFF00
7FFFFFFFFFFFFF00
000000000001FF00
0000000000003F00
0000000000001F00
0000000000001F00
0000000000000F00
0000000000000700
0000000000000700
0000000000000700
ENDCHAR

STARTCHAR afii10044
ENCODING 202
SWIDTH 937 0
DWIDTH 47 0
BBX 48 37 -1 0
BITMAP
3FFFFFF80000
3FFFFFF80000
3FFFFFF80000
3FC1FF000000
3F01FE000000
3E01FE000000
3E01FE000000
3C01FE000000
3C01FE000000
3801FE000000
3801FE000000
3801FE000000
0001FE000000
0001FE000000
0001FE000000
0001FE000000
0001FFFFF800
0001FFFFFF80
0001FFFFFFC0
0001FE007FF0
0001FE001FF0
0001FE000FF8
0001FE000FFC
0001FE0007FC
0001FE0007FC
0001FE0007FC
0001FE0007FC
0001FE0007FC
0001FE0007FC
0001FE0007FC
0001FE000FF8
0001FE000FF8
0001FE001FF0
0003FF007FE0
003FFFFFFFC0
003FFFFFFF00
003FFFFFF000
ENDCHAR

STARTCHAR afii10045
ENCODING 203
SWIDTH 1177 0
DWIDTH 59 0
BBX 59 37 0 0
BITMAP
3FFFF80001FFFFC0
3FFFF80001FFFFC0
3FFFF80001FFFFC0
03FF0000000FF800
01FE0000000FF000
01FE0000000FF000
01FE0000000FF000
01FE0000000FF000
01FE0000000FF000
01FE0000000FF000
01FE0000000FF000
01FE0000000FF000
01FE0000000FF000
01FE0000000FF000
01FE0000000FF000
01FE0000000FF000
01FFFFF8000FF000
01FFFFFF000FF000
01FFFFFFC00FF000
01FE007FE00FF000
01FE001FF00FF000
01FE000FF80FF000
01FE000FF80FF000
01FE0007FC0FF000
01FE0007FC0FF000
01FE0007FC0FF000
01FE0007FC0FF000
01FE0007FC0FF000
01FE0007FC0FF000
01FE0007FC0FF000
01FE000FF80FF000
01FE000FF80FF000
01FE001FF00FF000
03FF007FE00FF800
3FFFFFFFC1FFFFC0
3FFFFFFF01FFFFC0
3FFFFFF001FFFFC0
ENDCHAR

STARTCHAR afii10046
ENCODING 204
SWIDTH 781 0
DWIDTH 39 0
BBX 40 37 0 0
BITMAP
3FFFF80000
3FFFF80000
3FFFF80000
03FF000000
01FE000000
01FE000000
01FE000000
01FE000000
01FE000000
01FE000000
01FE000000
01FE000000
01FE000000
01FE000000
01FE000000
01FE000000
01FFFFF800
01FFFFFF80
01FFFFFFC0
01FE007FF0
01FE001FF0
01FE000FF8
01FE000FFC
01FE0007FC
01FE0007FC
01FE0007FC
01FE0007FC
01FE0007FC
01FE0007FC
01FE0007FC
01FE000FF8
01FE000FF8
01FE001FF0
03FF007FE0
3FFFFFFFC0
3FFFFFFF00
3FFFFFF000
ENDCHAR

STARTCHAR afii10047
ENCODING 205
SWIDTH 750 0
DWIDTH 38 0
BBX 36 39 0 -1
BITMAP
001FF00000
01FFFF0000
0FFFFFC000
1FF01FF000
1FC007F800
1F8003FC00
1F0001FE00
1F0000FF00
1E0000FF00
1E0000FF80
1C00007F80
1C00007FC0
1C00007FC0
0000007FC0
0000007FC0
0000007FE0
0000007FE0
000FFFFFE0
000FFFFFE0
000FFFFFE0
0000007FE0
0000007FE0
0000007FE0
0000007FC0
0000007FC0
3800007FC0
380000FFC0
380000FFC0
3C0000FF80
1C0001FF80
1E0001FF00
1E0003FF00
0F0003FE00
07C00FFC00
03F01FF800
01FFFFF000
00FFFFE000
003FFF0000
0007F80000
ENDCHAR

STARTCHAR afii10048
ENCODING 206
SWIDTH 1219 0
DWIDTH 61 0
BBX 60 39 0 -1
BITMAP
0000000007F80000
7FFFF8007FFF0000
7FFFF801FFFFC000
7FFFF807F80FF000
03FF000FF003F800
01FE001FE001FC00
01FE003FC001FE00
01FE003FC000FE00
01FE007F8000FF00
01FE007F8000FF80
01FE00FF80007F80
01FE00FF80007F80
01FE01FF00007FC0
01FE01FF00007FC0
01FE01FF00007FC0
01FE01FF00007FC0
01FE01FF00007FE0
01FE03FF00007FE0
01FFFFFF00007FE0
01FFFFFF00007FE0
01FFFFFF00007FE0
01FE03FF00007FE0
01FE01FF00007FE0
01FE01FF00007FC0
01FE01FF00007FC0
01FE01FF00007FC0
01FE01FF00007FC0
01FE00FF80007F80
01FE00FF80007F80
01FE007F8000FF80
01FE007F8000FF00
01FE003FC000FE00
01FE001FC001FE00
01FE001FE003FC00
03FF000FF007F800
7FFFF807F80FF000
7FFFF801FFFFC000
7FFFF8007FFF0000
000000000FF80000
ENDCHAR

STARTCHAR afii10049
ENCODING 207
SWIDTH 802 0
DWIDTH 40 0
BBX 41 37 -1 0
BITMAP
0003FFFFFE00
001FFFFFFE00
003FFFFFFE00
00FFE07FE000
00FF803FC000
01FF003FC000
01FF003FC000
03FE003FC000
03FE003FC000
03FE003FC000
03FE003FC000
03FE003FC000
01FE003FC000
01FF003FC000
00FF003FC000
00FF803FC000
003FC03FC000
001FFFFFC000
0003FFFFC000
0007FFFFC000
000FF03FC000
001FE03FC000
003FE03FC000
003FC03FC000
007FC03FC000
007F803FC000
00FF803FC000
00FF003FC000
01FF003FC000
01FF003FC000
03FE003FC000
03FE003FC000
07FC003FC000
07FC007FE000
7FF807FFFE00
7FF807FFFE00
7FF807FFFE00
ENDCHAR

STARTCHAR afii10065
ENCODING 208
SWIDTH 615 0
DWIDTH 31 0
BBX 31 29 0 -1
BITMAP
001FC000
01FFF800
07FFFE00
0FE0FF00
0FC07F00
1FC03F80
1FC03F80
1F803F80
1F803F80
0F803F80
07003F80
00003F80
0003FF80
007FFF80
03FFFF80
0FFE3F80
1FF03F80
3FE03F80
3FC03F80
7F803F80
7F803F80
7F803F80
7F803F80
7F807F80
3FC0FFC0
3FE3FFC0
1FFF9FF8
0FFE0FF8
07F807F0
ENDCHAR

STARTCHAR afii10066
ENCODING 209
SWIDTH 615 0
DWIDTH 31 0
BBX 30 39 1 -1
BITMAP
00000070
000000F0
000FFFE0
00FFFFE0
01FFFFC0
03FFFF80
07FFFF00
0FFFF800
0F800000
1E000000
1C000000
380F8000
387FF800
38FFFE00
31F07F00
33E03F80
77C01FC0
77C01FC0
7FC01FE0
7F800FE0
7F800FF0
7F800FF0
7F800FF0
7F800FF0
7F800FF0
7F800FF0
7F800FF0
3F800FF0
3F800FF0
3F800FE0
3F800FE0
1FC01FE0
1FC01FC0
0FC01FC0
0FE03F80
07F07F00
01FFFE00
00FFF800
000FC000
ENDCHAR

STARTCHAR afii10067
ENCODING 210
SWIDTH 646 0
DWIDTH 32 0
BBX 33 27 -1 0
BITMAP
3FFFFE0000
3FFFFFE000
3FFFFFF000
07FC0FF800
03F807F800
03F803FC00
03F803FC00
03F803FC00
03F803FC00
03F803F800
03F807F000
03F80FE000
03FFFF8000
03FFFF0000
03FFFFF000
03F807F800
03F803FE00
03F801FE00
03F801FF00
03F801FF00
03F801FF00
03F801FF00
03F803FE00
03FC07FE00
3FFFFFFC00
3FFFFFF000
3FFFFF8000
ENDCHAR

STARTCHAR afii10068
ENCODING 211
SWIDTH 577 0
DWIDTH 29 0
BBX 29 27 0 0
BITMAP
3FFFFFE0
3FFFFFE0
3FFFFFE0
03FC07E0
03F801E0
03F801F0
03F800F0
03F800F0
03F80070
03F80070
03F80000
03F80000
03F80000
03F80000
03F80000
03F80000
03F80000
03F80000
03F80000
03F80000
03F80000
03F80000
03F80000
07F80000
3FFF8000
3FFF8000
3FFF8000
ENDCHAR

STARTCHAR afii10069
ENCODING 212
SWIDTH 662 0
DWIDTH 33 0
BBX 34 34 -1 -7
BITMAP
03FFFFFF00
03FFFFFF00
03FFFFFF00
007C07F800
003C07F000
003807F000
003807F000
003807F000
003807F000
003807F000
003807F000
003807F000
003807F000
003007F000
003007F000
007007F000
007007F000
007007F000
006007F000
00E007F000
01C007F000
01C007F000
038007F000
0F0007F000
7FFFFFFF00
7FFFFFFF00
7FFFFFFF00
7E00003F00
7C00000F00
7800000700
7000000700
7000000300
7000000300
6000000300
ENDCHAR

STARTCHAR afii10070
ENCODING 213
SWIDTH 562 0
DWIDTH 28 0
BBX 28 29 1 -1
BITMAP
001F8000
00FFF000
01FFF800
07F0FC00
0FE07E00
0FC07F00
1FC03F00
1FC03F80
3F803F80
3F803F80
3F803FC0
7F803FC0
7F803FC0
7FFFFFC0
7FFFFFC0
7FFFFFC0
7F800000
7F800000
7F800000
3F800000
3F800000
3FC00380
1FC00780
1FE00700
0FF01E00
07F87C00
03FFF800
01FFF000
007FC000
ENDCHAR

STARTCHAR afii10072
ENCODING 214
SWIDTH 936 0
DWIDTH 47 0
BBX 49 28 -1 0
BITMAP
0780000001F800
1FE07FFF03FC00
1FF07FFF07FE00
3FF87FFF07FE00
3FF807F00FFE00
1F1807F00C7C00
0E1C07F01C3800
001C07F01C0000
000C07F0180000
000E07F0380000
000E07F0380000
000707F0700000
0003FFFFE00000
001FFFFFFC0000
003FFFFFFE0000
003F87F0FE0000
007F07F07F0000
007F07F07F0000
00FE07F03F8000
00FE07F03F8000
01FC07F01FC000
01FC07F01FE000
03F807F00FE000
07F807F00FF000
07F00FF807F800
3FF07FFF07FE00
3FE07FFF03FE00
3FE07FFF03FE00
ENDCHAR

STARTCHAR afii10073
ENCODING 215
SWIDTH 531 0
DWIDTH 27 0
BBX 26 29 1 -1
BITMAP
007F0000
07FFE000
1FFFF800
1F83FC00
1F01FE00
1E00FE00
1E00FE00
1C00FE00
1C00FE00
1C00FE00
0001FC00
0003F800
000FE000
007F0000
007FC000
001FF800
0003FC00
0001FE00
1E00FF00
3E00FF00
7F00FF00
7F00FF00
7F00FF00
7F00FE00
3F01FE00
1F03FC00
0FFFF800
07FFE000
007F0000
ENDCHAR

STARTCHAR afii10074
ENCODING 216
SWIDTH 708 0
DWIDTH 35 0
BBX 36 27 0 0
BITMAP
3FFF9FFFC0
3FFF9FFFC0
3FFF9FFFC0
03F801FC00
03F801FC00
03F801FC00
03F803FC00
03F807FC00
03F80FFC00
03F80DFC00
03F81DFC00
03F839FC00
03F871FC00
03F871FC00
03F8E1FC00
03F9C1FC00
03F981FC00
03FB81FC00
03FF01FC00
03FE01FC00
03FC01FC00
03FC01FC00
03F801FC00
03F801FC00
3FFF9FFFC0
3FFF9FFFC0
3FFF9FFFC0
ENDCHAR

STARTCHAR afii10075
ENCODING 217
SWIDTH 708 0
DWIDTH 35 0
BBX 36 37 0 0
BITMAP
001E03C000
001F03E000
001F03E000
001E03E000
000F03C000
0007FF8000
0001FE0000
0000000000
0000000000
0000000000
3FFF9FFFC0
3FFF9FFFC0
3FFF9FFFC0
03F801FC00
03F801FC00
03F801FC00
03F803FC00
03F807FC00
03F80FFC00
03F80DFC00
03F81DFC00
03F839FC00
03F871FC00
03F871FC00
03F8E1FC00
03F9C1FC00
03F981FC00
03FB81FC00
03FF01FC00
03FE01FC00
03FC01FC00
03FC01FC00
03F801FC00
03F801FC00
3FFF9FFFC0
3FFF9FFFC0
3FFF9FFFC0
ENDCHAR

STARTCHAR afii10076
ENCODING 218
SWIDTH 677 0
DWIDTH 34 0
BBX 35 28 0 0
BITMAP
0000007E00
3FFF80FF00
3FFF81FF00
3FFF81FF80
03F803FF80
03F8039F00
03F8030E00
03F8070000
03F8060000
03F80E0000
03F80E0000
03F81C0000
03FFF80000
03FFFE0000
03FFFF8000
03F87FC000
03F83FC000
03F81FE000
03F81FE000
03F80FF000
03F807F000
03F807F800
03F803F800
03F803FC00
07FC01FE00
3FFF81FFC0
3FFF80FFC0
3FFF80FFC0
ENDCHAR

STARTCHAR afii10077
ENCODING 219
SWIDTH 698 0
DWIDTH 35 0
BBX 37 28 -2 -1
BITMAP
00FFFFFFE0
00FFFFFFE0
00FFFFFFE0
001F00FF00
000F00FE00
000F00FE00
000F00FE00
000F00FE00
000E00FE00
000E00FE00
000E00FE00
000E00FE00
000E00FE00
000E00FE00
000E00FE00
000E00FE00
000E00FE00
000E00FE00
000E00FE00
000E00FE00
000C00FE00
1E1C00FE00
3F1C00FE00
3F1C01FF00
3FF80FFFE0
3FF80FFFE0
1FF00FFFE0
0FC0000000
ENDCHAR

STARTCHAR afii10078
ENCODING 220
SWIDTH 854 0
DWIDTH 43 0
BBX 43 27 0 0
BITMAP
3FFE000FFF80
3FFE000FFF80
3FFF001FFF80
077F001BFC00
037F801BF800
033F803BF800
033F8033F800
033FC073F800
031FC063F800
031FE063F800
030FE0E3F800
030FE0C3F800
030FF1C3F800
0307F183F800
0307F983F800
0303FB83F800
0303FB03F800
0303FF03F800
0301FE03F800
0301FE03F800
0300FE03F800
0300FC03F800
0300FC03F800
07807803FC00
3FF0783FFF80
3FF0783FFF80
3FF0303FFF80
ENDCHAR

STARTCHAR afii10079
ENCODING 221
SWIDTH 713 0
DWIDTH 36 0
BBX 36 27 0 0
BITMAP
3FFF9FFFC0
3FFF9FFFC0
3FFF9FFFC0
07FC01FC00
03F801FC00
03F801FC00
03F801FC00
03F801FC00
03F801FC00
03F801FC00
03F801FC00
03F801FC00
03FFFFFC00
03FFFFFC00
03F801FC00
03F801FC00
03F801FC00
03F801FC00
03F801FC00
03F801FC00
03F801FC00
03F801FC00
03F801FC00
03F801FE00
3FFF9FFFC0
3FFF9FFFC0
3FFF9FFFC0
ENDCHAR

STARTCHAR afii10080
ENCODING 222
SWIDTH 614 0
DWIDTH 31 0
BBX 30 29 1 -1
BITMAP
000FC000
00FFF800
01FFFE00
07F07F00
0FE03F80
0FC01FC0
1FC01FC0
3FC01FE0
3F800FE0
3F800FF0
7F800FF0
7F800FF0
7F800FF0
7F800FF0
7F800FF0
7F800FF0
7F800FF0
7F800FF0
7F800FF0
3F800FE0
3F800FE0
3FC01FE0
1FC01FC0
0FC01FC0
0FE03F80
07F07F00
03FFFC00
00FFF800
001FC000
ENDCHAR

STARTCHAR afii10081
ENCODING 223
SWIDTH 708 0
DWIDTH 35 0
BBX 36 27 0 0
BITMAP
3FFFFFFFC0
3FFFFFFFC0
3FFFFFFFC0
07F801FC00
03F801FC00
03F801FC00
03F801FC00
03F801FC00
03F801FC00
03F801FC00
03F801FC00
03F801FC00
03F801FC00
03F801FC00
03F801FC00
03F801FC00
03F801FC00
03F801FC00
03F801FC00
03F801FC00
03F801FC00
03F801FC00
03F801FC00
07FC01FE00
3FFF9FFFC0
3FFF9FFFC0
3FFF9FFFC0
ENDCHAR

STARTCHAR afii10082
ENCODING 224
SWIDTH 656 0
DWIDTH 33 0
BBX 33 37 0 -9
BITMAP
1FF03E0000
3FF0FFC000
3FF1FFE000
07FBFFF000
03FF0FF800
03FE07F800
03FC03FC00
03F803FC00
03F801FC00
03F801FE00
03F801FE00
03F801FE00
03F801FE00
03F801FE00
03F801FE00
03F801FE00
03F801FE00
03F801FE00
03F801FE00
03F801FC00
03F803FC00
03FC03FC00
03FE07F800
03FF0FF000
03FBFFF000
03F9FFE000
03F8FF8000
03F83E0000
03F8000000
03F8000000
03F8000000
03F8000000
03F8000000
03FC000000
3FFFE00000
3FFFE00000
3FFFE00000
ENDCHAR

STARTCHAR afii10083
ENCODING 225
SWIDTH 542 0
DWIDTH 27 0
BBX 26 29 1 -1
BITMAP
001F8000
00FFF000
03FFFC00
07F07E00
0FE03E00
1FC03F00
1FC07F00
3FC07F00
3F807F00
3F807F00
7F803E00
7F800800
7F800000
7F800000
7F800000
7F800000
7F800000
7F800000
7F800000
3F800000
3FC00380
3FC00780
1FC00700
1FE00F00
0FF01E00
0FF87C00
07FFF800
01FFF000
007FC000
ENDCHAR

STARTCHAR afii10084
ENCODING 226
SWIDTH 598 0
DWIDTH 30 0
BBX 31 27 0 0
BITMAP
3FFFFFF8
3FFFFFF8
3FFFFFF8
3E0FE0F8
3C0FE078
380FE038
780FE038
700FE03C
700FE01C
000FE000
000FE000
000FE000
000FE000
000FE000
000FE000
000FE000
000FE000
000FE000
000FE000
000FE000
000FE000
000FE000
000FE000
001FF000
00FFFE00
00FFFE00
00FFFE00
ENDCHAR

STARTCHAR afii10085
ENCODING 227
SWIDTH 594 0
DWIDTH 30 0
BBX 33 36 -1 -9
BITMAP
3FFF87FE00
3FFF87FE00
3FFF87FE00
0FF800F000
07F800F000
07F800E000
03FC00E000
03FC01C000
01FE01C000
01FE018000
00FF038000
00FF030000
007F870000
007F870000
003F860000
003FCE0000
001FCC0000
001FFC0000
001FF80000
000FF80000
000FF00000
0007F00000
0007F00000
0003E00000
0003E00000
0001C00000
0001C00000
0001C00000
0703800000
0F83800000
1F87000000
1F87000000
1F8E000000
1FFC000000
0FF8000000
03E0000000
ENDCHAR

STARTCHAR afii10086
ENCODING 228
SWIDTH 823 0
DWIDTH 41 0
BBX 41 47 0 -9
BITMAP
00003F000000
0007FF000000
0007FF000000
0000FF000000
00007F000000
00007F000000
00007F000000
00007F000000
00007F000000
00007F000000
00F87F000000
01FE7F0F8000
03FF7F3FE000
07FFFF7FF000
0FE3FFFFF800
0FC0FFC3F800
1FC0FF81FC00
1FC07F81FC00
1F807F01FC00
3F807F00FE00
3F807F00FE00
3F807F00FE00
3F807F00FE00
3F807F00FE00
3F807F00FE00
3F807F00FE00
3F807F00FE00
3F807F00FE00
3F807F00FE00
3F807F00FE00
1FC07F00FE00
1FC07F01FC00
1FC0FF01FC00
0FC0FF81FC00
0FE1FFC3F800
07FFFFFFF000
03FF7F7FF000
01FE7F3FC000
00787F0F0000
00007F000000
00007F000000
00007F000000
00007F000000
00007F000000
0007FFE00000
0007FFE00000
0007FFE00000
ENDCHAR

STARTCHAR afii10087
ENCODING 229
SWIDTH 646 0
DWIDTH 32 0
BBX 34 27 -1 0
BITMAP
3FFF87FF00
3FFF87FF00
3FFF87FF00
07FC00F800
03FE00F000
01FE01E000
01FF03C000
00FF878000
007FCF0000
003FFE0000
001FFC0000
000FF80000
000FF80000
0007FC0000
0003FE0000
0007FE0000
000FFF0000
001EFF8000
00387FC000
00703FE000
00E01FE000
01E01FF000
03C00FF800
07C007FC00
3FF87FFF00
3FF87FFF00
3FF87FFF00
ENDCHAR

STARTCHAR afii10088
ENCODING 230
SWIDTH 711 0
DWIDTH 36 0
BBX 36 34 0 -7
BITMAP
3FFF9FFFC0
3FFF9FFFC0
3FFF9FFFC0
03FC03FE00
03F801FC00
03F801FC00
03F801FC00
03F801FC00
03F801FC00
03F801FC00
03F801FC00
03F801FC00
03F801FC00
03F801FC00
03F801FC00
03F801FC00
03F801FC00
03F801FC00
03F801FC00
03F801FC00
03F801FC00
03F801FC00
03F801FE00
03F801FE00
3FFFFFFFE0
3FFFFFFFE0
3FFFFFFFE0
00000007E0
00000003E0
00000001E0
00000000E0
00000000E0
00000000E0
00000000E0
ENDCHAR

STARTCHAR afii10089
ENCODING 231
SWIDTH 698 0
DWIDTH 35 0
BBX 36 27 -1 0
BITMAP
3FFF9FFFC0
3FFF9FFFC0
3FFF9FFFC0
07FC03FE00
03F801FC00
03F801FC00
03F801FC00
03F801FC00
03F801FC00
03F801FC00
03F801FC00
03FC03FC00
03FE1FFC00
01FFFFFC00
01FFF9FC00
00FFF1FC00
003F81FC00
000001FC00
000001FC00
000001FC00
000001FC00
000001FC00
000001FC00
000001FE00
00001FFFC0
00001FFFC0
00001FFFC0
ENDCHAR

STARTCHAR afii10090
ENCODING 232
SWIDTH 1047 0
DWIDTH 52 0
BBX 52 27 0 0
BITMAP
7FFF3FFF8FFFE0
7FFF3FFF8FFFE0
7FFF3FFF8FFFE0
07F803FC01FE00
07F803FC01FE00
07F803FC01FE00
07F803FC01FE00
07F803FC01FE00
07F803FC01FE00
07F803FC01FE00
07F803FC01FE00
07F803FC01FE00
07F803FC01FE00
07F803FC01FE00
07F803FC01FE00
07F803FC01FE00
07F803FC01FE00
07F803FC01FE00
07F803FC01FE00
07F803FC01FE00
07F803FC01FE00
07F803FC01FE00
07F803FC01FE00
07F803FC01FE00
7FFFFFFFFFFFE0
7FFFFFFFFFFFE0
7FFFFFFFFFFFE0
ENDCHAR

STARTCHAR afii10091
ENCODING 233
SWIDTH 1055 0
DWIDTH 53 0
BBX 53 34 0 -7
BITMAP
7FFF3FFF8FFFE0
7FFF3FFF8FFFE0
7FFF3FFF8FFFE0
07F803FC01FE00
07F803FC01FE00
07F803FC01FE00
07F803FC01FE00
07F803FC01FE00
07F803FC01FE00
07F803FC01FE00
07F803FC01FE00
07F803FC01FE00
07F803FC01FE00
07F803FC01FE00
07F803FC01FE00
07F803FC01FE00
07F803FC01FE00
07F803FC01FE00
07F803FC01FE00
07F803FC01FE00
07F803FC01FE00
07F803FC01FE00
07F803FC01FE00
07F803FC01FE00
7FFFFFFFFFFFF0
7FFFFFFFFFFFF0
7FFFFFFFFFFFF0
000000000003F0
000000000001F0
000000000000F0
00000000000070
00000000000070
00000000000070
00000000000070
ENDCHAR

STARTCHAR afii10092
ENCODING 234
SWIDTH 740 0
DWIDTH 37 0
BBX 37 27 -1 0
BITMAP
1FFFFE0000
3FFFFE0000
3FFFFE0000
3E0FE00000
3C0FE00000
380FE00000
380FE00000
380FE00000
300FE00000
000FE00000
000FE00000
000FFFF000
000FFFFF00
000FFFFFC0
000FE03FE0
000FE01FE0
000FE00FF0
000FE00FF0
000FE00FF0
000FE00FF0
000FE00FF0
000FE00FE0
000FE01FE0
001FE03FC0
00FFFFFF80
00FFFFFF00
00FFFFF000
ENDCHAR

STARTCHAR afii10093
ENCODING 235
SWIDTH 948 0
DWIDTH 47 0
BBX 48 27 0 0
BITMAP
3FFF8001FFFC
3FFF8001FFFC
3FFF8001FFFC
07FC00001FE0
03F800001FC0
03F800001FC0
03F800001FC0
03F800001FC0
03F800001FC0
03F800001FC0
03F800001FC0
03FFFE001FC0
03FFFFE01FC0
03FFFFF01FC0
03F807F81FC0
03F803FC1FC0
03F801FC1FC0
03F801FE1FC0
03F801FE1FC0
03F801FE1FC0
03F801FE1FC0
03F803FC1FC0
03F803FC1FC0
07FC0FF81FE0
3FFFFFF1FFFC
3FFFFFE1FFFC
3FFFFE01FFFC
ENDCHAR

STARTCHAR afii10094
ENCODING 236
SWIDTH 635 0
DWIDTH 32 0
BBX 32 27 0 0
BITMAP
3FFF8000
3FFF8000
3FFF8000
07FC0000
03F80000
03F80000
03F80000
03F80000
03F80000
03F80000
03F80000
03FFFE00
03FFFFE0
03FFFFF8
03F807FC
03F803FC
03F801FE
03F801FE
03F801FE
03F801FE
03F801FE
03F803FE
03F803FC
07FC0FF8
3FFFFFF0
3FFFFFE0
3FFFFE00
ENDCHAR

STARTCHAR afii10095
ENCODING 237
SWIDTH 567 0
DWIDTH 28 0
BBX 28 29 0 -1
BITMAP
007F0000
07FFE000
1FFFF800
1F81FC00
1F00FE00
1E007F00
1E007F00
1C003F80
3C003F80
3C003F80
38003FC0
00003FC0
00003FC0
003FFFC0
003FFFC0
003FFFC0
00003FC0
00003FC0
1E003FC0
3E003FC0
7F003F80
7F003F80
7F007F80
7F007F00
3F00FE00
1F03FC00
0FFFF800
07FFE000
00FF0000
ENDCHAR

STARTCHAR afii10096
ENCODING 238
SWIDTH 935 0
DWIDTH 47 0
BBX 47 28 0 -1
BITMAP
3FFF800FE000
3FFF807FFC00
3FFF81FFFF00
07FC03F83F80
03F807F01FC0
03F80FE00FE0
03F80FE00FF0
03F81FE007F0
03F81FC007F0
03F81FC007F8
03F83FC007F8
03F83FC007F8
03FFFFC007F8
03FFFFC007F8
03FFFFC007F8
03F83FC007F8
03F83FC007F8
03F83FC007F8
03F81FC007F0
03F81FC007F0
03F81FE00FF0
03F80FE00FE0
03F80FE00FE0
07FC07F01FC0
3FFF83F83F80
3FFF81FFFE00
3FFF807FFC00
0000000FC000
ENDCHAR

STARTCHAR afii10097
ENCODING 239
SWIDTH 669 0
DWIDTH 33 0
BBX 34 27 0 0
BITMAP
001FFFFF00
00FFFFFF00
03FFFFFF00
07FC07F800
07F807F000
0FF007F000
0FF007F000
0FF007F000
0FF007F000
0FF007F000
07F807F000
03FC07F000
01FFFFF000
00FFFFF000
001FFFF000
007F07F000
00FE07F000
01FE07F000
01FC07F000
03FC07F000
03F807F000
03F807F000
07F807F000
0FF00FF800
7FF07FFF00
7FE07FFF00
7FE07FFF00
ENDCHAR

STARTCHAR afii61352
ENCODING 240
SWIDTH 1115 0
DWIDTH 56 0
BBX 57 39 -1 -1
BITMAP
000000001F800000
07FF80003FC00000
07FFC0007FE00000
07FFC000FFF00000
007FE000FFF00000
003FF001FFE00000
003FF001E7E00000
003FF801C1C00000
003FFC01C0000000
003FFC01C0000000
003FFE01C0000000
003FFE01C01F8000
003BFF01C07FE000
003BFF81C0F8F800
0039FF81C1F0F800
0038FFC1C3F07C00
0038FFE1C3E07C00
00387FE1C7E07E00
00383FF1C7E07E00
00383FF9C7E07E00
00381FF9C7E07E00
00381FFDC7E07E00
00380FFDC7E07E00
003807FFC7E07E00
003807FFC3E07C00
003803FFC3F07C00
003801FFC1F0F800
003801FFC0F9F000
003800FFC07FE000
003800FFC01F8000
0038007FC0000000
0C38003FC0000000
3E38003FC0000000
3FF8001FC0000000
7FF8000FC0FFF000
3FF0000FC0FFF000
3FF00007C0FFF000
1FE00007C0FFF000
0F80000000000000
ENDCHAR

STARTCHAR afii10071
ENCODING 241
SWIDTH 562 0
DWIDTH 28 0
BBX 28 39 1 -1
BITMAP
01801C00
03E03E00
07E07F00
07E07F00
07E07F00
03C03E00
00000000
00000000
00000000
00000000
001F8000
00FFF000
01FFF800
07F0FC00
0FE07E00
0FC03F00
1FC03F80
1FC03F80
3F803F80
3F801FC0
3F801FC0
7F801FC0
7F801FC0
7FFFFFC0
7FFFFFC0
7FFFFFC0
7F800000
7F800000
7F800000
3F800000
3F800000
3FC001C0
1FC00380
1FE00700
0FF00F00
07F87E00
03FFFC00
01FFF000
007FC000
ENDCHAR

STARTCHAR afii10099
ENCODING 242
SWIDTH 646 0
DWIDTH 32 0
BBX 32 47 0 -8
BITMAP
00780000
3FF80000
3FF80000
3FF80000
03F80000
03F80000
3FFFFFC0
3FFFFFC0
3FFFFFC0
03F80000
03F80000
03F80F00
03F83FC0
03F8FFE0
03F9FFF0
03FBFFF8
03FF87F8
03FE03FC
03FC03FC
03FC03FC
03F801FE
03F801FE
03F801FE
03F801FE
03F801FE
03F801FE
03F801FE
03F801FE
03F801FE
03F801FE
03F801FE
03F801FE
03F801FE
03F801FC
03F801FC
03FC01FC
3FFF83FC
3FFF83F8
3FFF83F8
000003F0
000007F0
000007E0
00000FC0
00001F80
00007F00
0001FE00
0001F800
ENDCHAR

STARTCHAR afii10100
ENCODING 243
SWIDTH 581 0
DWIDTH 29 0
BBX 29 38 0 0
BITMAP
00003C00
00007C00
0000FE00
0001FC00
0003FC00
0007F000
000F8000
000C0000
00000000
00000000
00000000
3FFFFFE0
3FFFFFE0
3FFFFFE0
03FC07E0
03F801E0
03F801F0
03F800F0
03F800F0
03F80070
03F80070
03F80000
03F80000
03F80000
03F80000
03F80000
03F80000
03F80000
03F80000
03F80000
03F80000
03F80000
03F80000
03F80000
07F80000
3FFF8000
3FFF8000
3FFF8000
ENDCHAR

STARTCHAR afii10101
ENCODING 244
SWIDTH 552 0
DWIDTH 28 0
BBX 27 28 1 -1
BITMAP
001F8000
00FFF000
03FFFC00
07F07E00
0FE03E00
1FC03F00
1FC07F00
3FC07F00
3F807F00
3F807F00
7F803E00
7F800000
7F800000
7FFFC000
7FFFC000
7FFFC000
7F800000
7F800000
7F800000
3F800000
3FC00380
3FC00700
1FE00F00
1FF01E00
0FF87C00
07FFF800
01FFF000
007FC000
ENDCHAR

STARTCHAR afii10102
ENCODING 245
SWIDTH 500 0
DWIDTH 25 0
BBX 24 29 1 -1
BITMAP
007E00
03FFE0
0FFFF8
1F81F8
3F00F8
3E0078
3E0038
7E0038
7F0018
7FC000
7FF800
3FFE00
3FFFC0
1FFFE0
1FFFF8
07FFFC
01FFFC
007FFE
000FFE
7001FE
7000FE
70007E
78007E
78007C
7C00FC
7F01F8
7FFFF0
0FFFC0
007E00
ENDCHAR

STARTCHAR afii10103
ENCODING 246
SWIDTH 396 0
DWIDTH 20 0
BBX 20 38 0 0
BITMAP
01E000
03F800
07F800
07F800
07F800
07F800
01E000
000000
000000
000000
000000
3FFC00
3FFC00
3FFC00
03FC00
01FC00
01FC00
01FC00
01FC00
01FC00
01FC00
01FC00
01FC00
01FC00
01FC00
01FC00
01FC00
01FC00
01FC00
01FC00
01FC00
01FC00
01FC00
01FC00
01FE00
3FFFE0
3FFFE0
3FFFE0
ENDCHAR

STARTCHAR afii10104
ENCODING 247
SWIDTH 396 0
DWIDTH 20 0
BBX 21 39 -1 0
BITMAP
0C0180
1F03E0
3F07E0
3F07E0
3F07E0
1F07E0
0C0180
000000
000000
000000
000000
001C00
3FFC00
3FFC00
07FC00
03FC00
01FC00
01FC00
01FC00
01FC00
01FC00
01FC00
01FC00
01FC00
01FC00
01FC00
01FC00
01FC00
01FC00
01FC00
01FC00
01FC00
01FC00
01FC00
01FC00
01FE00
3FFFE0
3FFFE0
3FFFE0
ENDCHAR

STARTCHAR afii10105
ENCODING 248
SWIDTH 375 0
DWIDTH 19 0
BBX 20 47 -4 -9
BITMAP
001F00
003F80
003FC0
007FC0
007FC0
003F80
001F00
000000
000000
000000
000000
03FFC0
03FFC0
03FFC0
003FC0
001FC0
001FC0
001FC0
001FC0
001FC0
001FC0
001FC0
001FC0
001FC0
001FC0
001FC0
001FC0
001FC0
001FC0
001FC0
001FC0
001FC0
001FC0
001FC0
001FC0
001FC0
001FC0
001FC0
001FC0
001F80
1C1F80
3E1F00
7F1F00
7F3E00
3FFC00
3FF800
0FC000
ENDCHAR

STARTCHAR afii10106
ENCODING 249
SWIDTH 967 0
DWIDTH 48 0
BBX 49 28 -1 -1
BITMAP
00FFFFFFE00000
00FFFFFFE00000
00FFFFFFE00000
001F00FE000000
000F00FE000000
000E00FE000000
000E00FE000000
000E00FE000000
000E00FE000000
000E00FE000000
000E00FE000000
000E00FFFF0000
000E00FFFFF000
000E00FFFFF800
000E00FE03FC00
000E00FE01FE00
000E00FE00FF00
000C00FE00FF00
001C00FE00FF00
001C00FE00FF00
001C00FE00FF00
3E1C00FE00FE00
3F1C00FE01FE00
3F1800FE03FC00
3FF801FFFFF800
3FF00FFFFFF000
1FF00FFFFF8000
0FC00000000000
ENDCHAR

STARTCHAR afii10107
ENCODING 250
SWIDTH 969 0
DWIDTH 48 0
BBX 48 27 0 0
BITMAP
3FFF9FFFC000
3FFF9FFFC000
3FFF9FFFC000
03F801FC0000
03F801FC0000
03F801FC0000
03F801FC0000
03F801FC0000
03F801FC0000
03F801FC0000
03F801FC0000
03FFFFFFFE00
03FFFFFFFFE0
03FFFFFFFFF0
03F801FC07F8
03F801FC03FC
03F801FC01FE
03F801FC01FE
03F801FC01FE
03F801FC01FE
03F801FC01FE
03F801FC01FC
03F801FC03FC
03F801FE07F8
3FFF9FFFFFF0
3FFF9FFFFFE0
3FFF9FFFFE00
ENDCHAR

STARTCHAR afii10108
ENCODING 251
SWIDTH 708 0
DWIDTH 35 0
BBX 36 39 0 0
BITMAP
0078000000
3FF8000000
3FF8000000
3FF8000000
03F8000000
03F8000000
3FFFFFC000
3FFFFFC000
3FFFFFC000
03F8000000
03F8000000
03F8078000
03F83FE000
03F87FF000
03F9FFF800
03FBFFFC00
03FF87FC00
03FF03FC00
03FC01FC00
03F801FC00
03F801FC00
03F801FC00
03F801FC00
03F801FC00
03F801FC00
03F801FC00
03F801FC00
03F801FC00
03F801FC00
03F801FC00
03F801FC00
03F801FC00
03F801FC00
03F801FC00
03F801FC00
03FC01FE00
3FFF9FFFC0
3FFF9FFFC0
3FFF9FFFC0
ENDCHAR

STARTCHAR afii10109
ENCODING 252
SWIDTH 677 0
DWIDTH 34 0
BBX 35 38 0 0
BITMAP
00001E0000
00003F0000
00007F0000
0000FF0000
0000FE0000
0001F80000
0003C00000
0002000000
0000000000
0000000000
0000007E00
3FFF80FF00
3FFF81FF00
3FFF81FF80
03F803FF80
03F8039F00
03F8030E00
03F8070000
03F8060000
03F80E0000
03F80E0000
03F81C0000
03FFF80000
03FFFE0000
03FFFF8000
03F87FC000
03F83FC000
03F81FE000
03F81FE000
03F80FF000
03F807F000
03F807F800
03F803F800
03F803FC00
07FC01FE00
3FFF81FFC0
3FFF80FFC0
3FFF80FFC0
ENDCHAR

STARTCHAR section
ENCODING 253
SWIDTH 531 0
DWIDTH 27 0
BBX 27 47 0 -9
BITMAP
001F8000
00FFF000
01FFF800
03E0FC00
07C07E00
07807E00
0F80FE00
0FC0FE00
0FC07C00
0FE03800
0FF80000
0FFC0000
07FF0000
07FF8000
03FFE000
03FFF000
07FFF800
0F3FFC00
0F1FFE00
1E07FF00
3E03FF00
3F01FF80
3F007F80
3F803F80
3FE01F80
3FF01F80
1FF80F80
1FFE0F00
0FFF0F00
07FF9E00
03FFFC00
01FFF800
00FFF800
003FFC00
001FFC00
0007FE00
0003FE00
0380FE00
07C07E00
0FE03E00
0FE03E00
0FC03E00
0FC07C00
07E0F800
03FFF000
01FFC000
003E0000
ENDCHAR

STARTCHAR afii10110
ENCODING 254
SWIDTH 594 0
DWIDTH 30 0
BBX 33 46 -1 -9
BITMAP
003C078000
003E07C000
003E07C000
003C07C000
001E078000
000FFF0000
0003FC0000
0000000000
0000000000
0000000000
3FFF87FE00
3FFF87FE00
3FFF87FE00
0FF800F800
07F8007000
07F800E000
03FC00E000
03FC00C000
01FE01C000
01FE018000
00FF038000
00FF038000
007F870000
007F870000
003FC60000
003FCE0000
001FCC0000
001FFC0000
001FF80000
000FF80000
000FF80000
0007F00000
0007F00000
0003E00000
0003E00000
0001C00000
0001C00000
0001C00000
0703800000
0F83800000
1F87000000
1F87000000
1F8E000000
1FFC000000
0FF8000000
03E0000000
ENDCHAR

STARTCHAR afii10193
ENCODING 255
SWIDTH 708 0
DWIDTH 35 0
BBX 36 34 0 -7
BITMAP
3FFF9FFFC0
3FFF9FFFC0
3FFF9FFFC0
03FC03FE00
03F801FC00
03F801FC00
03F801FC00
03F801FC00
03F801FC00
03F801FC00
03F801FC00
03F801FC00
03F801FC00
03F801FC00
03F801FC00
03F801FC00
03F801FC00
03F801FC00
03F801FC00
03F801FC00
03F801FC00
03F801FC00
03F801FC00
03FC03FE00
3FFFFFFFC0
3FFFFFFFC0
3FFFFFFFC0
0003FC0000
0001F80000
0000F00000
0000E00000
0000E00000
0000E00000
0000E00000
ENDCHAR
ENDFONT
